<svg width="461" height="439" xmlns="http://www.w3.org/2000/svg" xmlns:xlink="http://www.w3.org/1999/xlink"><svg width="17" height="17" viewBox="-2 -2 17 17" x="442" y="147" xmlns="http://www.w3.org/2000/svg"><g fill="none" fill-rule="evenodd"><rect width="13" height="13" fill="#3D3D3D" rx="6.5"/><path stroke="#FFF" stroke-linecap="round" d="M3.5 6.5l2.55 2.55m0 0l3.968-5.031"/></g></svg><svg width="39" height="39" viewBox="-2 -2 39 39" x="89" y="292" xmlns="http://www.w3.org/2000/svg"><g fill="none" fill-rule="evenodd"><path d="M25.454 24.245l.564 1.872-2.053-1.125c-.75.188-1.502.376-2.247.376-3.563 0-6.368-2.435-6.368-5.433 0-2.994 2.805-5.433 6.368-5.433 3.362 0 6.36 2.44 6.36 5.433 0 1.688-1.12 3.184-2.624 4.31zm-11.043-2.622c-.935 0-1.687-.19-2.623-.376L9.171 22.56l.748-2.253c-1.874-1.309-2.996-2.998-2.996-5.054 0-3.562 3.371-6.367 7.487-6.367 3.681 0 6.906 2.24 7.555 5.257a6.466 6.466 0 00-.721-.044c-3.557 0-6.366 2.654-6.366 5.925 0 .544.085 1.068.231 1.57a9.054 9.054 0 01-.699.029zM17.5 0C7.841 0 0 7.836 0 17.5S7.84 35 17.501 35C27.163 35 35 27.164 35 17.5S27.163 0 17.501 0z" fill="#87C160"/><path d="M10.835 12.668c0 .566.45 1.025 1.005 1.025.556 0 1.006-.459 1.006-1.025 0-.567-.45-1.026-1.006-1.026-.555 0-1.005.459-1.005 1.026m7.71 5.3c0 .472.376.855.838.855a.847.847 0 00.838-.855.847.847 0 00-.838-.855.847.847 0 00-.838.855m-2.682-5.3c0 .566.45 1.025 1.006 1.025.555 0 1.006-.459 1.006-1.025 0-.567-.45-1.026-1.006-1.026-.555 0-1.006.459-1.006 1.026m6.705 5.3c0 .472.375.855.838.855a.847.847 0 00.838-.855.847.847 0 00-.838-.855.847.847 0 00-.838.855" fill="#8EC46A"/></g></svg><svg width="39" height="39" viewBox="-2 -2 39 39" x="128" y="292" xmlns="http://www.w3.org/2000/svg"><g fill="#EC839D" fill-rule="evenodd"><path d="M17.5 35C7.835 35 0 27.165 0 17.5S7.835 0 17.5 0 35 7.835 35 17.5 27.165 35 17.5 35zM5 12.826c.074.365.15.702.21 1.042a78.97 78.97 0 01.456 2.855c.06.45.104.903.16 1.354.071.563.152 1.125.218 1.689.05.427.08.856.121 1.284.072.749.15 1.497.217 2.247.022.259.027.28.284.28.714.001 1.418-.086 2.121-.21a7.079 7.079 0 002.399-.867c.414-.244.798-.53 1.029-.97.21-.403.238-.754-.15-1.069a2.805 2.805 0 00-.526-.36c-1.237-.598-2.532-.917-3.912-.81-.092.007-.184.001-.28.001a47.726 47.726 0 01-.296-7.254c-.737.195-1.367.548-2.051.788zm15.05-.759c-.08.012-.149.01-.208.033-.568.226-1.135.454-1.698.692-.05.021-.1.13-.091.188.08.491.176.98.26 1.47.138.8.281 1.6.4 2.405.097.655.163 1.315.239 1.973.055.484.103.968.154 1.452.062.59.127 1.18.185 1.771.043.44.08.88.112 1.322.012.164.088.209.244.208a12.823 12.823 0 002.177-.217 7.103 7.103 0 002.2-.76c.498-.274.967-.589 1.23-1.127.181-.37.185-.724-.133-.976a4.077 4.077 0 00-.584-.407c-.655-.352-1.36-.56-2.087-.69-.647-.114-1.296-.218-1.954-.092-.103.02-.134-.015-.143-.113-.072-.767-.16-1.532-.217-2.3a43.7 43.7 0 01-.111-2.24c-.014-.622.016-1.245.024-1.868.003-.234 0-.468 0-.724zm8.772 10.265c-.02-.2-.036-.363-.05-.525-.05-.586-.103-1.17-.15-1.757-.079-.964-.156-1.928-.23-2.893-.032-.423-.049-.848-.08-1.271-.059-.782-.126-1.563-.181-2.345-.01-.144-.061-.216-.203-.208-.268.014-.537.028-.805.052-.132.011-.263.044-.392.067.538 2.938.814 5.882 1.093 8.83l.998.05zm-14.016-.049l.99.046c-.007-.138-.01-.245-.019-.35-.02-.22-.046-.44-.063-.66-.041-.518-.075-1.036-.119-1.553-.056-.66-.124-1.321-.177-1.983-.047-.58-.08-1.161-.122-1.742-.06-.826-.129-1.651-.18-2.478-.011-.175-.073-.245-.237-.231-.299.025-.597.05-.895.078-.282.026-.282.027-.22.293a.742.742 0 01.011.056c.117.785.239 1.57.349 2.355.115.824.228 1.648.326 2.473.08.671.136 1.344.2 2.017.053.553.103 1.106.156 1.68zm11.33.48c.312-.03.614-.062.917-.089.12-.01.138-.08.126-.184-.074-.626-.145-1.252-.217-1.878-.09-.79-.179-1.58-.273-2.368-.032-.273-.157-.386-.391-.355-.296.04-.589.102-.885.135-.146.016-.185.081-.161.21.079.44.154.881.24 1.32.103.524.217 1.046.322 1.57.108.536.21 1.073.321 1.64zm-13.025-.006c.312-.023.598-.038.883-.068.087-.01.187-.029.171-.173-.068-.621-.118-1.244-.193-1.864a120.08 120.08 0 00-.339-2.55c-.01-.07-.108-.185-.159-.182-.395.028-.788.077-1.181.128-.028.004-.071.087-.065.125.093.52.19 1.04.292 1.559.1.512.21 1.021.31 1.533.096.488.184.976.28 1.492zm17.546-1.665h-.041v-2.744c0-.147-.044-.252-.208-.252-.356-.001-.71.005-1.066.003-.153 0-.175.085-.162.21.016.157.024.315.04.472.072.735.15 1.47.22 2.205.055.585.104 1.17.154 1.756.01.119.062.162.181.157.232-.01.465-.015.697-.004.157.008.19-.056.188-.2-.007-.535-.003-1.07-.003-1.603zM17.64 22.896c0-.625.004-1.216-.002-1.807a344.18 344.18 0 00-.04-2.688c-.002-.138-.003-.297-.19-.31-.403-.03-.807-.05-1.216.03 0 .082-.005.145 0 .208.064.755.128 1.51.194 2.265.062.711.127 1.423.188 2.134.008.088.006.17.125.169.307-.002.613 0 .94 0zm-4.75-5.581c.158 0 .307-.004.456 0 .117.004.157-.052.146-.163-.05-.508-.099-1.016-.155-1.523-.005-.043-.058-.112-.092-.114a3.39 3.39 0 00-.496 0c-.028.001-.076.085-.07.126.064.55.137 1.099.212 1.674zm13.01-.001c.18 0 .337.008.492-.006.042-.003.1-.066.111-.112.018-.071.006-.152-.002-.227-.046-.427-.102-.853-.138-1.28-.01-.127-.052-.196-.168-.2-.163-.005-.326.007-.515.013l.22 1.812zm4.082.163c.138 0 .267-.02.386.005.196.04.219-.049.215-.213-.009-.367-.001-.736-.004-1.104 0-.138.032-.305-.032-.405-.045-.07-.229-.047-.35-.067-.019-.003-.036-.015-.054-.018-.18-.031-.248.022-.244.204.009.379.022.758.039 1.137.006.144.027.287.044.46zm-12.42-.86v-.572c0-.324 0-.323-.31-.346-.042-.004-.085-.017-.127-.025-.143-.026-.225.004-.22.182.012.406.01.814.011 1.22.003.388.002.388.392.4.037.001.077-.002.112.01.12.04.143-.024.143-.125-.002-.248 0-.496 0-.744zm11.487-.856l.137 1.747c.084-.005.152-.003.219-.014.306-.052.31-.053.305-.374-.006-.341-.02-.683-.032-1.024-.013-.417-.088-.472-.502-.375-.03.007-.06.019-.127.04zm-16.903 1.71l.511-.132-.212-1.612c-.014-.111-.06-.149-.178-.11-.1.034-.21.037-.315.046-.12.01-.138.06-.111.178.055.245.088.495.133.743.054.289.112.577.172.887zm13.51-.123c-.034-.36-.06-.699-.1-1.037a7.006 7.006 0 00-.108-.611c-.008-.039-.059-.101-.084-.098-.17.02-.338.054-.527.088l.326 1.782.492-.124zm-8.997.113v-1.347c-.002-.462-.008-.465-.466-.407-.105.013-.153.055-.146.17.03.455.034.912.086 1.363.03.26-.007.307.305.241.066-.013.134-.012.22-.02z"/><path d="M8.54 22.474l1.646-1.244a45.368 45.368 0 01-.02-.068c-.607-.262-1.219-.512-1.9-.692l.274 2.004m14.659-1.244l-.014-.087-1.847-.687-.048.052.269 1.965 1.64-1.243z"/></g></svg><svg width="20" height="20" viewBox="-2 -2 20 20" x="346" y="411" xmlns="http://www.w3.org/2000/svg"><path d="M1.933 9.373C2.578 12.025 5.05 14 7.998 14h0c2.955 0 5.429-1.981 6.069-4.64m-.013-2.772C13.394 3.955 10.934 2 7.998 2c-2.943 0-5.41 1.967-6.06 4.61m-.005-3.687v3.692m12.134 2.77v3.692" stroke="#000" fill="none" fill-rule="evenodd" stroke-linecap="round"/></svg><svg width="89" height="89" viewBox="-2 -2 89 89" y="292" xmlns="http://www.w3.org/2000/svg"><g fill="none" fill-rule="evenodd"><circle fill="#BBE18F" cx="42.5" cy="42.5" r="42.5"/><path d="M35.912 52.412L22.865 39.365a4.028 4.028 0 00-5.696 5.696l15.686 15.686a4.01 4.01 0 002.2 1.128 4.028 4.028 0 003.842-1.056l29.942-29.942a4.028 4.028 0 00-5.696-5.696L35.912 52.41z" fill="#FFF"/></g></svg><svg width="44" height="44" viewBox="-2 -2 44 44" x="364" y="208" xmlns="http://www.w3.org/2000/svg"><defs><filter x="-50%" y="-50%" width="200%" height="200%" filterUnits="objectBoundingBox" id="a"><feOffset dx="-1" in="SourceAlpha" result="shadowOffsetOuter1"/><feGaussianBlur stdDeviation=".5" in="shadowOffsetOuter1" result="shadowBlurOuter1"/><feColorMatrix values="0 0 0 0 0 0 0 0 0 0 0 0 0 0 0 0 0 0 0.3 0" in="shadowBlurOuter1"/></filter><path d="M21.983 23.752c-.021-3.893-3.172-8.719-3.031-13.466.13-4.393 3.575-8.687 3.032-12.874-.952-7.349-4.057-14.19-4.057-14.19L38.48 3.778s-1.937 4.985-2.045 7.195c-.13 2.65 1.877 7.692 1.877 7.692L18.748 38.228s3.26-10.245 3.235-14.476z" id="b"/></defs><g fill="none" fill-rule="evenodd"><g transform="rotate(45 8.078 18.519)"><use fill="#000" filter="url(#a)" xlink:href="#b"/><use fill="#D66A5A" xlink:href="#b"/></g><text font-family=".PingFang-SC-Regular, PingFang SC" font-size="10" font-weight="400" letter-spacing="1.071" fill="#FFF" transform="rotate(-45 47.945 19.445)"><tspan x="16.924" y="14.5">频道</tspan></text></g></svg><svg width="22" height="22" viewBox="-2 -2 22 22" x="158" y="270" xmlns="http://www.w3.org/2000/svg"><g transform="translate(1 1)" fill="none" fill-rule="evenodd"><rect fill="#4A4A4A" x="7" width="2" height="11" rx="1"/><path d="M11.5 5.5l-3-4m-4 4l3-4" stroke="#4A4A4A" stroke-width="2" stroke-linecap="round"/><rect fill="#4A4A4A" y="9" width="2" height="6" rx="1"/><rect fill="#4A4A4A" x="14" y="9" width="2" height="6" rx="1"/><rect fill="#4A4A4A" y="13" width="16" height="2" rx="1"/></g></svg><svg width="22" height="22" viewBox="-2 -2 22 22" x="180" y="270" xmlns="http://www.w3.org/2000/svg"><g transform="translate(0 -1)" fill="none" fill-rule="evenodd"><rect fill="#E35951" y="1" width="18" height="18" rx="2"/><text font-family=".PingFang-SC-Regular, PingFang SC" font-size="14" font-weight="400" fill="#FFF"><tspan x="2" y="15">荐</tspan></text></g></svg><svg width="19" height="17" viewBox="-2 -2 19 17" x="442" xmlns="http://www.w3.org/2000/svg"><path d="M15 3.964h-3.862L8.2 0h3.434L15 3.964zm-11.21.703l2.73 7.69L0 4.667h3.79zm6.669 0L7.499 13 4.543 4.667h5.917zm-5.717-.703L7.5.242l2.759 3.722H4.742zm6.468.703H15l-6.52 7.69 2.73-7.69zM3.366 0h3.433L3.862 3.964H.001L3.366 0z" fill="#FFF" fill-rule="evenodd"/></svg><svg width="26" height="26" viewBox="-2 -2 26 26" x="247" y="411" xmlns="http://www.w3.org/2000/svg"><g fill="none" fill-rule="evenodd"><path fill-opacity=".5" fill="#000" d="M0 0h22v22H0z"/><circle stroke="#FFF" stroke-width="2" cx="10.082" cy="10.082" r="5.082"/><path d="M14.299 13.299l4.163 4.163" stroke="#FFF" stroke-width="2" stroke-linecap="round"/></g></svg><svg width="34" height="34" viewBox="-2 -2 34 34" x="125" y="331" xmlns="http://www.w3.org/2000/svg"><defs><filter x="-.7%" y="-.7%" width="101.3%" height="101.3%" filterUnits="objectBoundingBox" id="e"><feOffset dx=".3" dy=".3" in="SourceAlpha" result="shadowOffsetInner1"/><feComposite in="shadowOffsetInner1" in2="SourceAlpha" operator="arithmetic" k2="-1" k3="1" result="shadowInnerInner1"/><feColorMatrix values="0 0 0 0 0.839215686 0 0 0 0 0.57254902 0 0 0 0 0.0666666667 0 0 0 0.3 0" in="shadowInnerInner1"/></filter><filter x="-1%" y="-1.2%" width="104%" height="104.8%" filterUnits="objectBoundingBox" id="g"><feOffset dx=".3" dy=".3" in="SourceAlpha" result="shadowOffsetOuter1"/><feColorMatrix values="0 0 0 0 0.882352941 0 0 0 0 0.611764706 0 0 0 0 0.176470588 0 0 0 1 0" in="shadowOffsetOuter1"/></filter><filter x="-1%" y="-1.2%" width="104%" height="104.8%" filterUnits="objectBoundingBox" id="i"><feOffset dx=".3" dy=".3" in="SourceAlpha" result="shadowOffsetInner1"/><feComposite in="shadowOffsetInner1" in2="SourceAlpha" operator="arithmetic" k2="-1" k3="1" result="shadowInnerInner1"/><feColorMatrix values="0 0 0 0 1 0 0 0 0 1 0 0 0 0 1 0 0 0 0.7 0" in="shadowInnerInner1"/></filter><circle id="c" cx="15" cy="15" r="15"/><circle id="d" cx="15" cy="15" r="11.25"/><path id="h" d="M7.5 20.625l2.857.625.893-7.813 4.107 5.938 3.393-5.938.893 7.813L22.5 20 20.357 8.75l-2.857.625L15.357 15l-3.571-6.25-2.857.625z"/></defs><g fill="none" fill-rule="evenodd"><use fill="#FE3" xlink:href="#c"/><circle stroke="#FFC400" cx="15" cy="15" r="14.5"/><mask id="f" fill="#fff"><use xlink:href="#d"/></mask><use fill="#FFC400" xlink:href="#d"/><use fill="#000" filter="url(#e)" xlink:href="#d"/><g mask="url(#f)"><use fill="#000" filter="url(#g)" xlink:href="#h"/><use fill="#FE3" xlink:href="#h"/><use fill="#000" filter="url(#i)" xlink:href="#h"/></g></g></svg><svg width="34" height="34" viewBox="-2 -2 34 34" x="159" y="331" xmlns="http://www.w3.org/2000/svg"><defs><filter x="-.7%" y="-.7%" width="101.3%" height="101.3%" filterUnits="objectBoundingBox" id="l"><feOffset dx=".3" dy=".3" in="SourceAlpha" result="shadowOffsetInner1"/><feComposite in="shadowOffsetInner1" in2="SourceAlpha" operator="arithmetic" k2="-1" k3="1" result="shadowInnerInner1"/><feColorMatrix values="0 0 0 0 0.439215686 0 0 0 0 0.6 0 0 0 0 0.666666667 0 0 0 1 0" in="shadowInnerInner1"/></filter><filter x="-1%" y="-1.2%" width="104%" height="104.8%" filterUnits="objectBoundingBox" id="n"><feOffset dx=".3" dy=".3" in="SourceAlpha" result="shadowOffsetOuter1"/><feColorMatrix values="0 0 0 0 0.438389849 0 0 0 0 0.598706632 0 0 0 0 0.666719813 0 0 0 1 0" in="shadowOffsetOuter1"/></filter><filter x="-1%" y="-1.2%" width="104%" height="104.8%" filterUnits="objectBoundingBox" id="p"><feOffset dx=".3" dy=".3" in="SourceAlpha" result="shadowOffsetInner1"/><feComposite in="shadowOffsetInner1" in2="SourceAlpha" operator="arithmetic" k2="-1" k3="1" result="shadowInnerInner1"/><feColorMatrix values="0 0 0 0 1 0 0 0 0 1 0 0 0 0 1 0 0 0 0.79 0" in="shadowInnerInner1"/></filter><circle id="j" cx="15" cy="15" r="15"/><circle id="k" cx="15" cy="15" r="11.25"/><path id="o" d="M7.5 20.625l2.857.625.893-7.813 4.107 5.938 3.393-5.938.893 7.813L22.5 20 20.357 8.75l-2.857.625L15.357 15l-3.571-6.25-2.857.625z"/></defs><g fill="none" fill-rule="evenodd"><use fill="#DBF3FE" xlink:href="#j"/><circle stroke="#9EBFCD" cx="15" cy="15" r="14.5"/><mask id="m" fill="#fff"><use xlink:href="#k"/></mask><use fill="#9EBFCD" xlink:href="#k"/><use fill="#000" filter="url(#l)" xlink:href="#k"/><g mask="url(#m)"><use fill="#000" filter="url(#n)" xlink:href="#o"/><use fill="#DBF3FE" xlink:href="#o"/><use fill="#000" filter="url(#p)" xlink:href="#o"/></g></g></svg><svg width="34" height="34" viewBox="-2 -2 34 34" x="193" y="331" xmlns="http://www.w3.org/2000/svg"><defs><filter x="-.8%" y="-.8%" width="101.7%" height="101.7%" filterUnits="objectBoundingBox" id="r"><feOffset dx="-.5" dy="-.5" in="SourceAlpha" result="shadowOffsetInner1"/><feComposite in="shadowOffsetInner1" in2="SourceAlpha" operator="arithmetic" k2="-1" k3="1" result="shadowInnerInner1"/><feColorMatrix values="0 0 0 0 0.91372549 0 0 0 0 0.62745098 0 0 0 0 0.188235294 0 0 0 0.4 0" in="shadowInnerInner1"/></filter><filter x="-.7%" y="-.7%" width="101.3%" height="101.3%" filterUnits="objectBoundingBox" id="t"><feOffset dx=".3" dy=".3" in="SourceAlpha" result="shadowOffsetInner1"/><feComposite in="shadowOffsetInner1" in2="SourceAlpha" operator="arithmetic" k2="-1" k3="1" result="shadowInnerInner1"/><feColorMatrix values="0 0 0 0 0.682352941 0 0 0 0 0.454901961 0 0 0 0 0.223529412 0 0 0 1 0" in="shadowInnerInner1"/></filter><filter x="-1%" y="-1.2%" width="104%" height="104.8%" filterUnits="objectBoundingBox" id="v"><feOffset dx=".3" dy=".3" in="SourceAlpha" result="shadowOffsetOuter1"/><feColorMatrix values="0 0 0 0 0.683487457 0 0 0 0 0.454417758 0 0 0 0 0.225348059 0 0 0 1 0" in="shadowOffsetOuter1"/></filter><filter x="-1%" y="-1.2%" width="104%" height="104.8%" filterUnits="objectBoundingBox" id="x"><feOffset dx=".3" dy=".3" in="SourceAlpha" result="shadowOffsetInner1"/><feComposite in="shadowOffsetInner1" in2="SourceAlpha" operator="arithmetic" k2="-1" k3="1" result="shadowInnerInner1"/><feColorMatrix values="0 0 0 0 1 0 0 0 0 1 0 0 0 0 1 0 0 0 0.8 0" in="shadowInnerInner1"/></filter><circle id="q" cx="15" cy="15" r="15"/><circle id="s" cx="15" cy="15" r="11.25"/><path id="w" d="M7.5 20.625l2.857.625.893-7.813 4.107 5.938 3.393-5.938.893 7.813L22.5 20 20.357 8.75l-2.857.625L15.357 15l-3.571-6.25-2.857.625z"/></defs><g fill="none" fill-rule="evenodd"><use fill="#FFE2C4" xlink:href="#q"/><use fill="#000" filter="url(#r)" xlink:href="#q"/><circle stroke="#DD9C5B" cx="15" cy="15" r="14.5"/><mask id="u" fill="#fff"><use xlink:href="#s"/></mask><use fill="#DD9C5B" xlink:href="#s"/><use fill="#000" filter="url(#t)" xlink:href="#s"/><g mask="url(#u)"><use fill="#000" filter="url(#v)" xlink:href="#w"/><use fill="#FFE2C4" xlink:href="#w"/><use fill="#000" filter="url(#x)" xlink:href="#w"/></g></g></svg><svg width="18" height="18" viewBox="-2 -2 18 18" x="442" y="93" xmlns="http://www.w3.org/2000/svg"><g transform="translate(1 1)" fill="none" fill-rule="evenodd"><circle stroke="#BDBDBD" stroke-width=".5" fill="#FFF" cx="6" cy="6" r="6"/><path d="M7.642 2.945c.412.357.617.847.617 1.471 0 .5-.13.919-.39 1.255-.09.11-.378.377-.864.802a1.585 1.585 0 00-.432.535c-.11.199-.165.425-.165.679v.175h-1.1v-.175c0-.398.068-.724.205-.977.13-.275.518-.7 1.162-1.276l.175-.195c.192-.247.288-.497.288-.751 0-.35-.1-.63-.298-.843-.206-.206-.497-.309-.874-.309-.467 0-.803.147-1.008.442-.185.247-.278.597-.278 1.05H3.6c0-.748.216-1.338.648-1.77.432-.439 1.029-.658 1.79-.658.665 0 1.2.182 1.604.545zM6.398 8.623c.144.13.216.305.216.524a.731.731 0 01-.227.535.769.769 0 01-.534.206.726.726 0 01-.535-.216.714.714 0 01-.216-.525c0-.219.072-.394.216-.524a.724.724 0 01.535-.206c.226 0 .408.069.545.206z" fill="#BDBDBD"/></g></svg><svg width="28" height="28" viewBox="-2 -2 28 28" y="411" xmlns="http://www.w3.org/2000/svg"><g transform="translate(3 1)" fill="#FFF" fill-rule="evenodd"><rect width="4" height="23" rx="2"/><rect x="14" width="4" height="23" rx="2"/></g></svg><svg width="28" height="28" viewBox="-2 -2 28 28" x="28" y="411" xmlns="http://www.w3.org/2000/svg"><path d="M19.904 11.017c1.434.819 1.437 2.145 0 2.966L4.096 23.017c-1.434.819-2.596.141-2.596-1.508V3.49c0-1.652 1.159-2.329 2.596-1.508l15.808 9.034z" fill="#FFF" fill-rule="evenodd"/></svg><svg width="22" height="22" viewBox="-2 -2 22 22" x="202" y="270" xmlns="http://www.w3.org/2000/svg"><path d="M16.563.12c.292.28.373.955.247 2.039-.127 1.1-.487 2.21-1.084 3.343.154.566.249 1.173.283 1.822.059 1.228-.288 2.2-1.066 2.92-.876.81-2.322 1.336-4.328 1.573.112.334.242.728.391 1.18.419 1.3.599 2.282.54 2.938-.072.662-.315 1.17-.738 1.521-.44.378-.999.55-1.678.513-1.116-.058-1.872-.49-2.254-1.291l.04.076-.024.003c-1.064.062-1.93-.201-2.585-.794-.626-.558-.945-1.274-.977-2.142.014-.216.1-.32.252-.32.149 0 .234.1.257.306.058.621.378 1.116.958 1.476.541.34 1.16.468 1.853.388.003-.48.152-.983.45-1.508a5.79 5.79 0 01.59-.788c.302-.36.49-.589.558-.697.068-.117.122-.32.149-.612.004-.045.008-.09.01-.136-1.994-.031-3.467-.402-4.42-1.115-.845-.634-1.295-1.56-1.363-2.78a8.654 8.654 0 01.095-1.85C2.002 5.12 1.52 4.045 1.288 2.973c-.239-1.07-.23-1.754.031-2.056.198-.234.846-.247 1.953-.031.793.155 1.671.4 2.636.734.861-.45 1.876-.723 3.042-.815l.013-.01c1.166-.025 2.204.143 3.109.504a19.058 19.058 0 012.547-.998c1.075-.329 1.723-.387 1.944-.18z" fill="#CD3333" fill-rule="evenodd"/></svg><svg width="22" height="22" viewBox="-2 -2 22 22" x="224" y="270" xmlns="http://www.w3.org/2000/svg"><path d="M16.563.12c.292.28.373.955.247 2.039-.127 1.102-.487 2.212-1.086 3.345a8.53 8.53 0 01.285 1.82c.059 1.228-.288 2.2-1.066 2.92-.876.81-2.322 1.336-4.328 1.573.112.334.242.728.391 1.18.419 1.3.599 2.282.54 2.938-.072.662-.315 1.17-.738 1.521-.44.378-.999.55-1.678.513-1.116-.058-1.872-.49-2.254-1.291l.04.077c-1.075.068-1.948-.195-2.61-.792-.625-.558-.944-1.274-.976-2.142.014-.216.1-.32.252-.32.149 0 .234.1.257.306.058.621.378 1.116.958 1.476.542.34 1.16.468 1.853.388.003-.48.152-.983.45-1.508a5.79 5.79 0 01.59-.788c.302-.36.49-.589.558-.697.068-.117.122-.32.149-.612.004-.045.008-.09.01-.136-1.994-.031-3.467-.402-4.42-1.115-.845-.634-1.295-1.56-1.363-2.78a8.654 8.654 0 01.095-1.85C2.002 5.12 1.52 4.045 1.288 2.973c-.239-1.07-.23-1.754.031-2.056.198-.234.846-.247 1.953-.031.793.155 1.671.4 2.636.734.861-.45 1.876-.723 3.042-.815l.013-.01c1.166-.025 2.204.143 3.11.505a19 19 0 012.546-1c1.075-.328 1.723-.386 1.944-.18z" fill="#FFF" fill-rule="evenodd"/></svg><svg width="28" height="28" viewBox="-2 -2 28 28" x="56" y="411" xmlns="http://www.w3.org/2000/svg"><g stroke="#CD3333" fill="none" fill-rule="evenodd" stroke-linecap="round"><path d="M9 15v4m-4-4l1 4.02M6 19s.5.5 1.5.5S9 19 9 19m0-4l5.569 1.485c1.066.284 1.931-.38 1.931-1.482V8M9 15H3.99A.99.99 0 013 13.997V9.003C3 8.449 3.451 8 3.99 8H9"/><path d="M9 8l10.062-3.659c.518-.188.938.109.938.656v11.502c0 1.105-.837 1.666-1.469 1.414h0"/></g></svg><svg width="28" height="28" viewBox="-2 -2 28 28" x="84" y="411" xmlns="http://www.w3.org/2000/svg"><g stroke="#000" fill="none" fill-rule="evenodd" stroke-linecap="round"><path d="M9 15v4m-4-4l1 4.02M6 19s.5.5 1.5.5S9 19 9 19m0-4l5.569 1.485c1.066.284 1.931-.38 1.931-1.482V8M9 15H3.99A.99.99 0 013 13.997V9.003C3 8.449 3.451 8 3.99 8H9"/><path d="M9 8l10.062-3.659c.518-.188.938.109.938.656v11.502c0 1.105-.837 1.666-1.469 1.414h0"/></g></svg><svg width="53" height="15" viewBox="-2 -2 53 15" x="304" y="174" xmlns="http://www.w3.org/2000/svg"><g transform="translate(0 -6)" fill="#E35E4C" fill-rule="evenodd"><text font-family="Arial-Black, Arial Black" font-size="15" font-weight="700" letter-spacing="1.11"><tspan x="9" y="17">L!V</tspan> <tspan x="38.997" y="17">E</tspan></text><circle cx="2.5" cy="11.5" r="2.5"/></g></svg><svg width="53" height="15" viewBox="-2 -2 53 15" x="304" y="189" xmlns="http://www.w3.org/2000/svg"><g transform="translate(0 -6)" fill="none" fill-rule="evenodd"><text font-family="Arial-Black, Arial Black" font-size="15" font-weight="700" letter-spacing="1.11"><tspan x="9" y="17" fill="#000">L</tspan> <tspan x="20.115" y="17" fill="#E35E4C">!</tspan> <tspan x="26.22" y="17" fill="#000">V</tspan> <tspan x="38.997" y="17" fill="#000">E</tspan></text><circle fill="#000" cx="2.5" cy="11.5" r="2.5"/></g></svg><svg width="22" height="22" viewBox="-2 -2 22 22" x="246" y="270" xmlns="http://www.w3.org/2000/svg"><g transform="translate(2 3)" fill="none" fill-rule="evenodd"><ellipse stroke="#CD3333" stroke-width="1.4" cx="8.211" cy="3.882" rx="4.105" ry="3.882"/><path d="M8.21 1.664c-1.295 0-2.345.993-2.345 2.218m-3.46 6.489c-1.296 0-2.346-.993-2.346-2.218" stroke="#CD3333" stroke-width="1.4" stroke-linecap="round" stroke-linejoin="round"/><path d="M5.301 7.276a.604.604 0 01.807-.175.539.539 0 01.188.763l-1.867 2.825a.604.604 0 01-.807.175.539.539 0 01-.187-.763L5.3 7.276z" fill="#CD3333"/></g></svg><svg width="22" height="22" viewBox="-2 -2 22 22" x="268" y="270" xmlns="http://www.w3.org/2000/svg"><g transform="translate(2 3)" fill="none" fill-rule="evenodd"><ellipse stroke="#000" stroke-width="1.4" cx="8.211" cy="3.882" rx="4.105" ry="3.882"/><path d="M8.21 1.664c-1.295 0-2.345.993-2.345 2.218m-3.46 6.489c-1.296 0-2.346-.993-2.346-2.218" stroke="#000" stroke-width="1.4" stroke-linecap="round" stroke-linejoin="round"/><path d="M5.301 7.276a.604.604 0 01.807-.175.539.539 0 01.188.763l-1.867 2.825a.604.604 0 01-.807.175.539.539 0 01-.187-.763L5.3 7.276z" fill="#000"/></g></svg><svg width="22" height="22" viewBox="-2 -2 22 22" x="290" y="270" xmlns="http://www.w3.org/2000/svg"><path d="M6.57 2.25h5.12M2.26 3.844h13.675m-11.666 2v8.58c0 .491.412.888.92.888h7.914c.508 0 .92-.397.92-.887V5.844m-6.513.437v6.907m3.3-6.907v6.907" stroke="#BF4A3F" fill="none" fill-rule="evenodd" stroke-linecap="round"/></svg><svg width="24" height="24" viewBox="-2 -2 24 24" x="109" y="381" xmlns="http://www.w3.org/2000/svg"><defs><rect id="y" x=".833" y="3.333" width="18.33" height="13.333" rx="3.645"/></defs><g fill="none" fill-rule="evenodd"><use fill="#ED8A8A" xlink:href="#y"/><rect stroke="#CB4646" x="1.333" y="3.833" width="17.33" height="12.333" rx="3.645"/><text font-family=".PingFang-SC-Medium, PingFang SC" font-size="7.29" font-weight="bold" fill="#FFF"><tspan x="3.125" y="12.815">MID</tspan></text></g></svg><svg width="20" height="20" viewBox="-2 -2 20 20" x="366" y="411" xmlns="http://www.w3.org/2000/svg"><path d="M13.546 8.303L8.95 12.9l-.707-.707 4.242-4.242-4.242-4.243L8.95 3l4.95 4.95-.354.353zm-5 0L3.95 12.9l-.707-.707L7.485 7.95 3.243 3.707 3.95 3 8.9 7.95l-.354.353z" fill="#000" fill-rule="evenodd"/></svg><svg width="16" height="34" viewBox="-2 -2 16 34" x="383" y="292" xmlns="http://www.w3.org/2000/svg"><path d="M3.429 0H0l8.571 15H12L3.429 0zm0 30L12 15H8.571L0 30h3.429z" fill="#FFF" fill-rule="evenodd"/></svg><svg width="14" height="14" viewBox="-2 -2 14 14" x="442" y="224" xmlns="http://www.w3.org/2000/svg"><g fill="#FFF" fill-rule="evenodd"><rect y="4" width="10" height="2" rx="1"/><rect transform="rotate(90 5 5)" y="4" width="10" height="2" rx="1"/></g></svg><svg width="30" height="30" viewBox="-2 -2 30 30" x="408" y="164" xmlns="http://www.w3.org/2000/svg"><path d="M14.854 21.203c-1.024-.426-2.688-.424-3.708 0L8.674 22.23c-1.024.425-1.801-.127-1.736-1.228l.294-4.976-2.996-3.814c-.683-.869-.368-1.808.695-2.095l4.504-1.22 2.534-4.191c.57-.942 1.497-.935 2.062 0l2.534 4.19 4.504 1.22c1.067.29 1.378 1.228.695 2.096l-2.996 3.814.294 4.976c.065 1.103-.715 1.652-1.736 1.228l-2.472-1.027z" stroke-width="1.5" stroke="#623E0B" fill="#FFE363" fill-rule="evenodd"/></svg><svg width="158" height="142" viewBox="-2 -2 158 142" y="150" xmlns="http://www.w3.org/2000/svg"><g fill="none" fill-rule="evenodd"><path d="M153 69c0-33.137-26.863-60-60-60S33 35.863 33 69s26.863 60 60 60 60-26.863 60-60" fill="#3B3B3B"/><path d="M141.75 57.462V9A3.75 3.75 0 00138 5.25H18A3.75 3.75 0 0014.25 9v120a3.75 3.75 0 003.75 3.75h120a3.75 3.75 0 003.75-3.75V81.793a11.85 11.85 0 01-.377.006c-6.723 0-12.172-5.45-12.172-12.172s5.45-12.171 12.172-12.171c.126 0 .251.002.377.006z" stroke="#CECECE" stroke-width=".5" fill-opacity=".2" fill="#FFF"/></g></svg><svg width="30" height="30" viewBox="-2 -2 30 30" x="408" y="194" xmlns="http://www.w3.org/2000/svg"><defs><rect id="z" x="3" y="3" width="9.412" height="9.412" rx="2.4"/><rect id="A" x="13.588" y="3" width="9.412" height="9.412" rx="2.4"/><rect id="B" x="3" y="13.588" width="9.412" height="9.412" rx="2.4"/><rect id="C" x="13.588" y="13.588" width="9.412" height="9.412" rx="2.4"/></defs><g fill="none" fill-rule="evenodd"><use fill="#7EBFF2" xlink:href="#z"/><rect stroke="#07376E" stroke-width="1.5" x="3.75" y="3.75" width="7.912" height="7.912" rx="2.4"/><use fill="#7EBFF2" xlink:href="#A"/><rect stroke="#07376E" stroke-width="1.5" x="14.338" y="3.75" width="7.912" height="7.912" rx="2.4"/><g><use fill="#7EBFF2" xlink:href="#B"/><rect stroke="#07376E" stroke-width="1.5" x="3.75" y="14.338" width="7.912" height="7.912" rx="2.4"/></g><g><use fill="#7EBFF2" xlink:href="#C"/><rect stroke="#07376E" stroke-width="1.5" x="14.338" y="14.338" width="7.912" height="7.912" rx="2.4"/></g></g></svg><svg width="21" height="21" viewBox="-2 -2 21 21" x="371" y="381" xmlns="http://www.w3.org/2000/svg"><path d="M1.5 1.5l14.142 14.142m0-14.142L1.5 15.642" stroke="#FFF" stroke-width="2" fill="none" fill-rule="evenodd" stroke-linecap="round"/></svg><svg width="146" height="58" viewBox="-2 -2 146 58" x="158" y="150" xmlns="http://www.w3.org/2000/svg"><defs><path id="D" d="M220 48.5l92-9.5 8 45.5-94-6.5-5.5 6.5L201 73l-4 8-7-7 5.5.5L199 62l15 8.5z"/></defs><g transform="translate(-182 -35)" fill="none" fill-rule="evenodd"><use fill="#000" xlink:href="#D"/><path stroke="#000" stroke-width="3" d="M213.06 68.244l-13.32-7.549-1.668-.945-.516 1.846-3.164 11.297-4.256-.387-4.126-.375 2.93 2.93 7 7 1.47 1.471.932-1.861 3.28-6.562 18.116 10.683 1.09.643.817-.966 5.01-5.92 93.242 6.447 1.912.133-.332-1.889-8-45.5-.242-1.376-1.39.144-92 9.5-1.022.106-.27.991-5.492 20.139z"/><path stroke="#FFF" stroke-width="2" d="M213.374 68.996l-13.881-7.866-1.111-.63-.345 1.23-3.276 11.699-4.67-.425-2.751-.25 1.953 1.953 7 7 .981.981.62-1.24 3.521-7.042 18.577 10.955.727.429.544-.644 5.173-6.113 93.495 6.465 1.275.088-.221-1.26-8-45.5-.161-.916-.927.095-92 9.5-.681.07-.18.662-5.662 20.759z"/></g></svg><svg width="22" height="22" viewBox="-2 -2 22 22" x="312" y="270" xmlns="http://www.w3.org/2000/svg"><path d="M10.669 16.382c-.922-.382-2.42-.381-3.338 0l-2.224.925c-.922.383-1.622-.102-1.563-1.106l.265-4.477L1.112 8.29c-.614-.782-.33-1.627.626-1.886l4.054-1.098 2.28-3.772c.513-.848 1.347-.841 1.856 0l2.28 3.772 4.054 1.098c.96.26 1.24 1.104.626 1.886l-2.697 3.433.265 4.477c.059.994-.644 1.487-1.563 1.106l-2.224-.925z" stroke="#757575" stroke-width=".9" fill="none"/></svg><svg width="48" height="48" viewBox="-2 -2 48 48" x="220" y="208" xmlns="http://www.w3.org/2000/svg"><g fill="none" fill-rule="evenodd"><circle stroke="#FFF" stroke-width="2" cx="22" cy="22" r="21"/><path d="M17 13.849v16.303a1 1 0 001.56.827l12.033-8.151a1 1 0 000-1.656l-12.032-8.151a1 1 0 00-1.561.828z" fill="#FFF"/></g></svg><svg width="70" height="24" viewBox="-2 -2 70 24" x="304" y="150" xmlns="http://www.w3.org/2000/svg"><g fill="none" fill-rule="evenodd"><path fill="#E63C3C" d="M0 0h66l-5 10 5 10H0z"/><text font-family="PingFangSC-Regular, PingFang SC" font-size="12" fill="#FFF"><tspan x="6" y="14">今日更新</tspan></text></g></svg><svg width="30" height="30" viewBox="-2 -2 30 30" x="408" y="224" xmlns="http://www.w3.org/2000/svg"><defs><rect id="E" x="0" y="2.963" width="20.622" height="16.593" rx="4.571"/></defs><g transform="translate(3 3)" fill="none" fill-rule="evenodd"><use fill="#C7CEFF" xlink:href="#E"/><rect stroke="#3F3462" stroke-width="1.5" x=".75" y="3.713" width="19.122" height="15.093" rx="4.571"/><path d="M13.533 8.667h2.417" stroke="#3F3563" stroke-width="1.333" stroke-linecap="round"/><path d="M2.772 3.893l8.904-3.42" stroke="#3F3563" stroke-width="1.5" stroke-linecap="round"/><path d="M13.533 11.333h2.417M13.533 14h2.417" stroke="#3F3563" stroke-width="1.333" stroke-linecap="round"/><ellipse stroke="#3F3563" stroke-width="1.333" fill="#FFF" cx="7.089" cy="10.906" rx="3.222" ry="3.191"/></g></svg><svg width="25" height="25" viewBox="-2 -2 25 25" x="59" y="381" xmlns="http://www.w3.org/2000/svg"><defs><path d="M15.47 7.556l2.147 2.18c.56.568 1.023.381 1.023-.428V2.446c0-.809-.458-1.002-1.023-.428l-2.312 2.346C13.731 2.85 11.163.766 8.444.164 4.021-.817 0 2.793 0 6.04c0 3.246 4.021 6.856 8.444 5.877 2.816-.624 5.47-2.836 7.026-4.36z" id="F"/></defs><g transform="translate(1.68 4.88)" fill="none" fill-rule="evenodd"><use fill="#B1CBDC" xlink:href="#F"/><path stroke="#515D65" d="M15.826 7.205l-.35-.355-.356.349c-2.177 2.133-4.529 3.73-6.784 4.23C4.499 12.278.5 9.233.5 6.04.5 2.846 4.499-.198 8.336.652c2.191.485 4.48 2.01 6.622 4.072l.356.343.347-.352 2.312-2.346c.25-.253.167-.287.167.077v6.862c0 .36.08.328-.167.076l-2.147-2.179z"/><ellipse fill="#515D65" cx="3.451" cy="6.04" rx="1.15" ry="1.163"/></g></svg><svg width="30" height="30" viewBox="-2 -2 30 30" x="408" y="254" xmlns="http://www.w3.org/2000/svg"><defs><rect id="G" x="0" y="0" width="17" height="17" rx="3.4"/></defs><g transform="translate(5 5)" fill="none" fill-rule="evenodd"><mask id="H" fill="#fff"><use xlink:href="#G"/></mask><use fill="#FFF" xlink:href="#G"/><rect stroke="#495E35" stroke-width="1.5" x="-.75" y="-.75" width="18.5" height="18.5" rx="3.4"/><path d="M-.122 12.887c.302-.362.826-.907 1.174-1.22l2.921-2.63a1.01 1.01 0 011.37.035l2.569 2.56c.33.331.815.274 1.069-.108l2.721-4.093c.579-.87 1.535-.876 2.13-.022l2.278 3.272c.27.386.712 1 .984 1.379 0 0 1.346 1.72 1.181 2.296-.165.575-.914 2.803-1.678 3.116-.732.301-6.777 1.275-12.347.284-5.57-.991-5.95-2.975-5.95-2.975l1.578-1.894z" stroke="#495E35" stroke-width="1.5" fill="#D1EB86" stroke-linecap="round" mask="url(#H)"/><circle fill="#495E35" mask="url(#H)" cx="4.439" cy="4.344" r="1.889"/></g></svg><svg width="24" height="24" viewBox="-2 -2 24 24" x="133" y="381" xmlns="http://www.w3.org/2000/svg"><defs><path d="M1.956 6.974c-.03-.399.185-.491.468-.22l3.677 3.528c.29.277.66.214.836-.155L9.689 4.32c.172-.363.447-.37.622 0l2.752 5.807c.172.363.553.426.836.155l3.677-3.528c.29-.277.499-.176.468.22l-.474 6.157c-.155 2.006-1.91 3.632-3.922 3.632H6.352c-2.011 0-3.767-1.62-3.922-3.632l-.474-6.157z" id="I"/></defs><g fill="none" fill-rule="evenodd"><circle fill="#EE9E2B" cx="10" cy="3" r="1"/><use fill="#FFD661" xlink:href="#I"/><path stroke="#EE9E2B" d="M2.5 7.52l3.255 3.122c.537.515 1.313.375 1.633-.301L10 4.83l2.612 5.51c.317.67 1.102.811 1.633.302L17.5 7.52l-.43 5.573c-.134 1.745-1.673 3.17-3.423 3.17H6.352c-1.753 0-3.288-1.42-3.423-3.17l-.43-5.573z"/><circle fill="#EE9E2B" cx="18.289" cy="6.199" r="1"/><circle fill="#EE9E2B" cx="1.84" cy="6.199" r="1"/></g></svg><svg width="30" height="30" viewBox="-2 -2 30 30" x="408" y="284" xmlns="http://www.w3.org/2000/svg"><g fill="none" fill-rule="evenodd"><circle fill-opacity=".8" fill="#000" cx="13" cy="13" r="13"/><path d="M9.75 8.5v9m6-9v9" stroke="#FFF" stroke-width="1.5" stroke-linecap="round"/></g></svg><svg width="25" height="25" viewBox="-2 -2 25 25" x="84" y="381" xmlns="http://www.w3.org/2000/svg"><g transform="translate(1 1)" fill="none" fill-rule="evenodd"><circle stroke="#757575" cx="9.5" cy="9.5" r="9.5"/><path d="M15.153 8.983c.468.285.46.753 0 1.034l-7.306 4.466c-.468.285-.847.072-.847-.479V4.996c0-.55.387-.76.847-.479l7.306 4.466z" fill="#757575"/></g></svg><svg width="30" height="30" viewBox="-2 -2 30 30" x="408" y="314" xmlns="http://www.w3.org/2000/svg"><g fill="none" fill-rule="evenodd"><circle fill-opacity=".8" fill="#000" cx="13" cy="13" r="13"/><path fill="#FFF" d="M18.2 13.52l-8.32 5.72V7.8z"/></g></svg><svg width="28" height="28" viewBox="-2 -2 28 28" x="112" y="411" xmlns="http://www.w3.org/2000/svg"><defs><filter x="-64.3%" y="-64.3%" width="228.6%" height="228.6%" filterUnits="objectBoundingBox" id="K"><feMorphology radius="2" operator="dilate" in="SourceAlpha" result="shadowSpreadOuter1"/><feOffset in="shadowSpreadOuter1" result="shadowOffsetOuter1"/><feGaussianBlur stdDeviation="2" in="shadowOffsetOuter1" result="shadowBlurOuter1"/><feComposite in="shadowBlurOuter1" in2="SourceAlpha" operator="out" result="shadowBlurOuter1"/><feColorMatrix values="0 0 0 0 0 0 0 0 0 0 0 0 0 0 0 0 0 0 0.2 0" in="shadowBlurOuter1"/></filter><filter x="-53.6%" y="-53.6%" width="207.1%" height="207.1%" filterUnits="objectBoundingBox" id="L"><feMorphology radius="1" in="SourceAlpha" result="shadowSpreadInner1"/><feOffset in="shadowSpreadInner1" result="shadowOffsetInner1"/><feComposite in="shadowOffsetInner1" in2="SourceAlpha" operator="arithmetic" k2="-1" k3="1" result="shadowInnerInner1"/><feColorMatrix values="0 0 0 0 1 0 0 0 0 1 0 0 0 0 1 0 0 0 0.3 0" in="shadowInnerInner1"/></filter><circle id="J" cx="7" cy="7" r="7"/></defs><g transform="translate(5 5)" fill="none" fill-rule="evenodd"><mask id="M" fill="#fff"><use xlink:href="#J"/></mask><use fill="#000" filter="url(#K)" xlink:href="#J"/><use fill="#DF2135" xlink:href="#J"/><use fill="#000" filter="url(#L)" xlink:href="#J"/><circle stroke="#000" stroke-width="2" cx="7" cy="7" r="8"/><circle stroke="#FFF" cx="7" cy="7" r="7.5"/><circle fill="#FFF" opacity=".5" mask="url(#M)" cx="3.733" cy="3.733" r="3.733"/></g></svg><svg width="16" height="34" viewBox="-2 -2 16 34" x="227" y="331" xmlns="http://www.w3.org/2000/svg"><path d="M8.571 0H12L3.429 15H0L8.571 0zm0 30L0 15h3.429L12 30H8.571z" fill="#FFF" fill-rule="evenodd"/></svg><svg width="28" height="32" viewBox="-2 -2 28 32" x="408" y="68" xmlns="http://www.w3.org/2000/svg"><defs><path d="M3.09 13.096h8v13a.5.5 0 01-.8.4l-2.9-2.175a.5.5 0 00-.6 0l-2.9 2.175a.5.5 0 01-.8-.4v-13z" id="N"/><path d="M12.84 13.033h8v13a.5.5 0 01-.8.4l-2.9-2.175a.5.5 0 00-.6 0l-2.9 2.175a.5.5 0 01-.8-.4v-13z" id="O"/><circle id="P" cx="12" cy="11" r="11"/></defs><g fill="none" fill-rule="evenodd"><g transform="rotate(30 7.09 19.846)"><use fill="#FDFDFD" xlink:href="#N"/><path stroke="#FFB938" d="M3.59 13.596v12.5l2.9-2.175a1 1 0 011.2 0l2.9 2.175v-12.5h-7z"/></g><g transform="rotate(-30 16.84 19.784)"><use fill="#FDFDFD" xlink:href="#O"/><path stroke="#FFB938" d="M13.34 13.533v12.5l2.9-2.175a1 1 0 011.2 0l2.9 2.175v-12.5h-7z"/></g><use fill="#FFB938" xlink:href="#P"/><circle stroke="#FFF" stroke-width="2.5" cx="12" cy="11" r="9.75"/><circle stroke="#FFB938" stroke-width="1.5" cx="12" cy="11" r="10.25"/><path d="M10.771 12.152V9.446c0-.917-.305-1.515-.916-1.794-.326-.12-.489-.319-.489-.598 0-.239.224-.418.672-.538.244-.08.448-.14.61-.179.204-.08.469-.22.795-.419.407-.279.733-.418.977-.418.651 0 .977.359.977 1.076v5.576c-.122 1.116.163 1.814.855 2.093.57.358.814.657.733.896 0 .24-.143.359-.428.359-.203 0-.61-.02-1.221-.06a23.04 23.04 0 00-1.283-.06c-.366 0-.875.02-1.526.06-.53.04-.896.06-1.1.06-.285 0-.427-.12-.427-.359s.244-.498.733-.777c.814-.319 1.16-1.056 1.038-2.212z" fill="#FDFDFD"/></g></svg><svg width="28" height="32" viewBox="-2 -2 28 32" x="408" y="100" xmlns="http://www.w3.org/2000/svg"><defs><path d="M3.09 13.096h8v13a.5.5 0 01-.8.4l-2.9-2.175a.5.5 0 00-.6 0l-2.9 2.175a.5.5 0 01-.8-.4v-13z" id="Q"/><path d="M12.84 13.033h8v13a.5.5 0 01-.8.4l-2.9-2.175a.5.5 0 00-.6 0l-2.9 2.175a.5.5 0 01-.8-.4v-13z" id="R"/><circle id="S" cx="12" cy="11" r="11"/></defs><g fill="none" fill-rule="evenodd"><g transform="rotate(30 7.09 19.846)"><use fill="#FDFDFD" xlink:href="#Q"/><path stroke="#B1C3D6" d="M3.59 13.596v12.5l2.9-2.175a1 1 0 011.2 0l2.9 2.175v-12.5h-7z"/></g><g transform="rotate(-30 16.84 19.784)"><use fill="#FDFDFD" xlink:href="#R"/><path stroke="#B1C3D6" d="M13.34 13.533v12.5l2.9-2.175a1 1 0 011.2 0l2.9 2.175v-12.5h-7z"/></g><use fill="#B1C3D6" xlink:href="#S"/><circle stroke="#FFF" stroke-width="2.5" cx="12" cy="11" r="9.75"/><circle stroke="#B1C3D6" stroke-width="1.5" cx="12" cy="11" r="10.25"/><path d="M10.497 9.809H9.1a.5.5 0 01-.5-.5v-.064c0-.591.012-1.047.037-1.366.024-.32.107-.61.249-.872.141-.261.29-.448.446-.56a1.85 1.85 0 01.466-.25A3.805 3.805 0 0110.922 6h2.087c.142 0 .329.027.56.08.232.054.422.112.568.173.147.06.276.14.388.238.113.097.211.201.297.311.085.11.167.248.245.414.078.166.132.294.161.384.03.09.055.25.077.48.022.23.037.392.044.487.008.095.011.309.011.641-.005.532-.023.912-.055 1.139a3.126 3.126 0 01-.12.557c-.05.144-.113.29-.191.439a2.387 2.387 0 01-.27.41 1.167 1.167 0 01-.43.311 2.367 2.367 0 01-.406.154c-.088.02-.471.069-1.15.147l-1.033.154c-.229.029-.39.068-.483.117a.583.583 0 00-.227.216.786.786 0 00-.11.318l-.014.476-.008.154c-.005.098.012.169.051.213.02.029.048.053.085.073.036.02.072.03.106.033.034.002.141.004.322.004h3.425a.5.5 0 01.5.497l.006 1.05a.5.5 0 01-.5.503h-5.75a.5.5 0 01-.5-.5v-1.939c0-.478.015-.8.047-.966.032-.166.076-.36.132-.583a2.11 2.11 0 01.256-.608 1.81 1.81 0 01.366-.435c.13-.108.27-.198.421-.271.152-.074.34-.138.564-.194.225-.057.5-.103.828-.14.327-.036.532-.064.615-.084l.227-.044c.323-.049.526-.086.612-.113a.44.44 0 00.227-.187c.066-.098.106-.247.12-.447l.023-.557c.03-.483-.012-.786-.125-.908a.526.526 0 00-.27-.165 3.967 3.967 0 00-.477-.018h-.615c-.17 0-.314.03-.428.088a.882.882 0 00-.26.187c-.06.066-.1.28-.125.64a7.79 7.79 0 00-.03.66.22.22 0 01-.219.22z" fill="#FDFDFD"/></g></svg><svg width="28" height="32" viewBox="-2 -2 28 32" x="408" y="132" xmlns="http://www.w3.org/2000/svg"><defs><path d="M3.09 13.096h8v13a.5.5 0 01-.8.4l-2.9-2.175a.5.5 0 00-.6 0l-2.9 2.175a.5.5 0 01-.8-.4v-13z" id="T"/><path d="M12.84 13.033h8v13a.5.5 0 01-.8.4l-2.9-2.175a.5.5 0 00-.6 0l-2.9 2.175a.5.5 0 01-.8-.4v-13z" id="U"/><circle id="V" cx="12" cy="11" r="11"/></defs><g fill="none" fill-rule="evenodd"><g transform="rotate(30 7.09 19.846)"><use fill="#FDFDFD" xlink:href="#T"/><path stroke="#DAC49A" d="M3.59 13.596v12.5l2.9-2.175a1 1 0 011.2 0l2.9 2.175v-12.5h-7z"/></g><g transform="rotate(-30 16.84 19.784)"><use fill="#FDFDFD" xlink:href="#U"/><path stroke="#DAC49A" d="M13.34 13.533v12.5l2.9-2.175a1 1 0 011.2 0l2.9 2.175v-12.5h-7z"/></g><use fill="#DAC49A" xlink:href="#V"/><circle stroke="#FFF" stroke-width="2.5" cx="12" cy="11" r="9.75"/><circle stroke="#DAC49A" stroke-width="1.5" cx="12" cy="11" r="10.25"/><path d="M9.958 11.94V9.97h2.3c.102 0 .225-.019.37-.055a.795.795 0 00.31-.136.485.485 0 00.143-.223c.032-.095.05-.278.052-.55.002-.27-.021-.462-.07-.574a.583.583 0 00-.249-.286.907.907 0 00-.418-.08H11.27c-.269 0-.453.043-.553.131a.945.945 0 00-.187.198c-.025.044-.037.186-.037.425v.476H8.53c0-.108 0-.186-.003-.234a21.8 21.8 0 01-.011-.4 8.324 8.324 0 01.007-.611c.02-.454.096-.81.23-1.066.135-.256.277-.438.425-.546.15-.107.32-.207.513-.3S10.177 6 10.573 6H13.4c.146 0 .337.033.571.099.235.066.456.177.663.333.208.156.369.385.483.685.115.3.185.575.21.824a7.5 7.5 0 01.028.835 6.1 6.1 0 01-.091.948c-.051.271-.12.456-.209.553l-.344.447c.166.186.288.336.366.45.078.115.142.242.19.381.05.14.092.317.129.531.036.215.052.599.047 1.15-.01.337-.025.591-.047.762-.022.17-.066.369-.132.593a2.49 2.49 0 01-.223.55 2.05 2.05 0 01-.389.454c-.175.16-.316.263-.42.307a3.208 3.208 0 01-.561.143 3.72 3.72 0 01-.52.077h-1.904l-.667.015a2.87 2.87 0 01-.692-.103 1.815 1.815 0 01-.634-.315c-.19-.146-.357-.378-.501-.696a2.428 2.428 0 01-.235-.89 16.982 16.982 0 01-.018-.743v-.447h2.073c-.005.215-.005.406 0 .572.005.166.036.28.095.344a.416.416 0 00.19.124c.069.02.205.03.41.03h1.077c.25 0 .445-.052.586-.154.142-.103.226-.288.253-.557.027-.268.02-.53-.018-.783-.035-.196-.093-.341-.176-.436a.416.416 0 00-.33-.143H9.958z" fill="#FDFDFD"/></g></svg><svg width="18" height="18" viewBox="-2 -2 18 18" x="442" y="111" xmlns="http://www.w3.org/2000/svg"><path d="M7 1a6 6 0 00-2.59 11.414M7 13h0A6 6 0 009.678 1.63M9.5 1.5h3m-3 0v3m-5 5v3m0 0h-3" stroke="#979797" fill="none" fill-rule="evenodd" stroke-linecap="round"/></svg><svg width="17" height="17" viewBox="-2 -2 17 17" x="442" y="164" xmlns="http://www.w3.org/2000/svg"><defs><path id="W" d="M2 28h9v9H2z"/></defs><g transform="rotate(45 37.885 19.5)" fill="none" fill-rule="evenodd"><use fill="#000" xlink:href="#W"/><path stroke="#FFF" stroke-width="2.5" d="M3.25 29.25h6.5v6.5h-6.5z"/><path stroke="#000" d="M2.5 28.5h8v8h-8z"/></g></svg><svg width="30" height="30" viewBox="-2 -2 30 30" x="408" y="344" xmlns="http://www.w3.org/2000/svg"><defs><path d="M0 2.344A2.353 2.353 0 012.346 0h12.308A2.344 2.344 0 0117 2.344V16.44c0 2.6-1.619 3.364-3.63 1.697l-4.87-4.04-4.87 4.04C1.624 19.799 0 19.042 0 16.44V2.344z" id="X"/></defs><g transform="translate(5 4)" fill="none" fill-rule="evenodd"><use fill="#F16867" xlink:href="#X"/><path stroke="#0B2C4E" stroke-width="1.5" d="M.75 2.344C.75 1.469 1.472.75 2.346.75h12.308c.882 0 1.596.713 1.596 1.594V16.44c0 1.967-.88 2.38-2.4 1.12l-4.871-4.04-.479-.397-.479.397-4.87 4.04C1.634 18.817.75 18.404.75 16.44V2.344z"/></g></svg><svg width="30" height="30" viewBox="-2 -2 30 30" y="381" xmlns="http://www.w3.org/2000/svg"><g stroke="#07376E" fill="none" fill-rule="evenodd" stroke-linecap="round" stroke-linejoin="round"><path d="M5 12.935v1.003c.16 1.794.85 3.325 2.125 4.644 1.487 1.372 3.186 2.11 5.205 2.11" stroke-width="1.5"/><path d="M19.473 12.935v1.003c-.16 1.794-.85 3.325-2.125 4.644-1.487 1.372-3.187 2.11-5.205 2.11m-.393.432v1.93m3.484.696H8.718" stroke-width="1.5"/><path d="M12.33 3c1.434 0 2.655.475 3.665 1.478a4.746 4.746 0 011.221 1.741c.16.475.266.95.266 1.425.053.158.053.37.053.528 0 .158 0 .316-.053.474V12.5c.053.158.053.316.053.527 0 .159 0 .317-.053.528-.053 1.214-.531 2.27-1.487 3.166-1.01 1.003-2.231 1.478-3.665 1.478-.425 0-.797 0-1.169-.106a5.073 5.073 0 01-2.496-1.372c-.956-.95-1.487-2.058-1.54-3.324V7.802c.053-1.32.584-2.427 1.54-3.324C9.674 3.475 10.842 3 12.33 3" stroke-width="1.5" fill="#7EBFF2"/><path d="M17.317 11.25h-4.35m4.35 3.3h-4.35m4.35-6.6h-4.35" stroke-width="1.1"/></g></svg><svg width="24" height="24" viewBox="-2 -2 24 24" x="157" y="381" xmlns="http://www.w3.org/2000/svg"><defs><rect id="Y" x="1.667" y="1.667" width="16.667" height="16.667" rx="8.333"/></defs><g fill="none" fill-rule="evenodd"><use fill="#DCF398" xlink:href="#Y"/><rect stroke="#495E35" x="2.167" y="2.167" width="15.667" height="15.667" rx="7.833"/><path d="M10 10V5.491a.5.5 0 00-1 0v5.018c0 .13.055.252.144.341.091.093.213.15.347.15h5.018a.5.5 0 000-1H10z" fill="#495E35"/></g></svg><svg width="23" height="27" viewBox="-2 -2 23 27" x="224" y="411" xmlns="http://www.w3.org/2000/svg"><g transform="translate(0 2)" fill="none" fill-rule="evenodd"><circle fill="#FFF" cx="2.5" cy="9.5" r="2.5"/><path d="M7 3s3 3.25 3 6.5S7 16 7 16m6-16s4 4.875 4 9.75-4 9.75-4 9.75" stroke="#FFF" stroke-width="3" stroke-linecap="round"/></g></svg><svg width="36" height="36" viewBox="-2 -2 36 36" x="167" y="292" xmlns="http://www.w3.org/2000/svg"><defs><circle id="Z" cx="15" cy="15" r="15"/><mask id="aa" maskContentUnits="userSpaceOnUse" maskUnits="objectBoundingBox" x="0" y="0" width="30" height="30" fill="#fff"><use xlink:href="#Z"/></mask></defs><g transform="translate(1 1)" fill="none" fill-rule="evenodd"><use stroke="#FFF" mask="url(#aa)" stroke-width="4" xlink:href="#Z"/><path d="M18.072 15.246l2.832-2.833A1.998 1.998 0 0020.9 9.59a1.992 1.992 0 00-2.824-.004l-2.833 2.832-2.832-2.832a1.992 1.992 0 00-2.824.004 1.998 1.998 0 00-.005 2.824l2.833 2.833-2.833 2.833a1.998 1.998 0 00.005 2.824 1.992 1.992 0 002.824.004l2.832-2.833 2.833 2.833a1.992 1.992 0 002.824-.004 1.998 1.998 0 00.004-2.824l-2.832-2.833z" fill="#FFF"/></g></svg><svg width="36" height="36" viewBox="-2 -2 36 36" x="203" y="292" xmlns="http://www.w3.org/2000/svg"><g fill="#FFF" fill-rule="evenodd"><path d="M14 3h4v10h-4zM1 20h2v9H1zm28 0h2v9h-2z"/><path d="M1 27h30v2H1zm15-5l7-9H9z"/></g></svg><svg width="48" height="48" viewBox="-2 -2 48 48" x="268" y="208" xmlns="http://www.w3.org/2000/svg"><g transform="matrix(-1 0 0 1 35 -1)" fill="#FFF" fill-rule="evenodd"><rect transform="rotate(45 13.581 13.581)" x="10.581" y="-1.919" width="6" height="31" rx="3"/><rect transform="scale(1 -1) rotate(45 89.826 0)" x="10.581" y="16.081" width="6" height="31" rx="3"/></g></svg><svg width="48" height="48" viewBox="-2 -2 48 48" x="316" y="208" xmlns="http://www.w3.org/2000/svg"><g transform="translate(9 -1)" fill="#FFF" fill-rule="evenodd"><rect transform="rotate(45 13.581 13.581)" x="10.581" y="-1.919" width="6" height="31" rx="3"/><rect transform="scale(1 -1) rotate(45 89.826 0)" x="10.581" y="16.081" width="6" height="31" rx="3"/></g></svg><svg width="36" height="36" viewBox="-2 -2 36 36" x="239" y="292" xmlns="http://www.w3.org/2000/svg"><defs><path d="M13.707 2.45c1.267-2.457 3.318-2.46 4.586 0l12.414 24.1c1.267 2.457.062 4.45-2.706 4.45H4c-2.761 0-3.974-1.99-2.706-4.45l12.414-24.1z" id="ab"/><mask id="ac" maskContentUnits="userSpaceOnUse" maskUnits="objectBoundingBox" x="0" y="0" width="30.42" height="30.394" fill="#fff"><use xlink:href="#ab"/></mask></defs><g fill="none" fill-rule="evenodd"><use stroke="#FFF" mask="url(#ac)" stroke-width="4" xlink:href="#ab"/><path fill="#FFF" d="M14 10h4v11h-4zm0 13h4v4h-4z"/></g></svg><svg width="24" height="24" viewBox="-2 -2 24 24" x="181" y="381" xmlns="http://www.w3.org/2000/svg"><g fill="none" fill-rule="evenodd"><circle fill="#000" opacity=".7" cx="10" cy="10" r="10"/><g transform="rotate(45 3.172 12.828)" fill="#FFF"><rect x="5" width="2" height="12" rx="1"/><rect y="5" width="12" height="2" rx="1"/></g></g></svg><svg width="29" height="29" viewBox="-2 -2 29 29" x="379" y="331" xmlns="http://www.w3.org/2000/svg"><g fill="none" fill-rule="evenodd"><circle fill="#000" opacity=".7" cx="12.5" cy="12.5" r="12.5"/><g transform="translate(5 7)" stroke="#FFF"><path d="M1.499 3h.778a1 1 0 00.948-.683L3.5 1.5h0A2.194 2.194 0 015.582 0h3.837c.944 0 1.782.604 2.08 1.5l.272.816h0a1 1 0 00.95.684h.779A1.5 1.5 0 0115 4.5V10h0a2 2 0 01-2 2H2h0a2 2 0 01-2-2V4.499h0C0 3.67.67 3 1.499 3z"/><circle cx="7.5" cy="6.5" r="2.5"/></g></g></svg><svg width="24" height="24" viewBox="-2 -2 24 24" x="205" y="381" xmlns="http://www.w3.org/2000/svg"><defs><path d="M.5 9a.5.5 0 01.5.5v3a.5.5 0 11-1 0v-3A.5.5 0 01.5 9z" id="ad"/><path d="M5.833 7a.5.5 0 01.5.5v5a.5.5 0 11-1 0v-5a.5.5 0 01.5-.5z" id="ae"/><path d="M11.167 4a.5.5 0 01.5.5v8a.5.5 0 11-1 0v-8a.5.5 0 01.5-.5z" id="af"/><path d="M16.5 0a.5.5 0 01.5.5v12a.5.5 0 11-1 0V.5a.5.5 0 01.5-.5z" id="ag"/></defs><g fill="none" fill-rule="evenodd"><path d="M1.15 12.77c2.518-.299 5.12-1.288 7.81-2.968 2.69-1.68 5.464-4.385 8.326-8.115" stroke="#FFF" stroke-linecap="round"/><g transform="translate(1.5 6)"><use fill="#FFF" xlink:href="#ad"/><path stroke="#FFF" d="M.5 9.5v3-3z"/></g><g transform="translate(1.5 6)"><use fill="#FFF" xlink:href="#ae"/><path stroke="#FFF" d="M5.833 7.5v5-5z"/></g><g transform="translate(1.5 6)"><use fill="#FFF" xlink:href="#af"/><path stroke="#FFF" d="M11.167 4.5v8-8z"/></g><g transform="translate(1.5 6)"><use fill="#FFF" xlink:href="#ag"/><path stroke="#FFF" d="M16.5.5v12-12z"/></g><path d="M18.091.227a.498.498 0 00-.38-.043l-2.884.827a.5.5 0 10.276.961l2.403-.689.689 2.403a.5.5 0 10.961-.275L18.33.527a.498.498 0 00-.238-.3z" fill="#FFF"/></g></svg><svg width="24" height="24" viewBox="-2 -2 24 24" x="229" y="381" xmlns="http://www.w3.org/2000/svg"><g transform="translate(2 3)" fill="none" fill-rule="evenodd"><circle fill="#FFF" cx="8" cy="7" r="2"/><path d="M5 11a4.992 4.992 0 01-2-4c0-1.636.786-3.088 2-4m0 8h0m6-8c1.214.912 2 2.364 2 4a4.992 4.992 0 01-2 4m0-8h0" stroke="#FFF" stroke-linecap="round"/><path d="M4 13.93A7.997 7.997 0 010 7 7.997 7.997 0 014 .07m0 13.86h0M12 .07A7.997 7.997 0 0116 7a7.997 7.997 0 01-4 6.93M12 .07h0" stroke="#FFF" stroke-linecap="round"/></g></svg><svg width="24" height="24" viewBox="-2 -2 24 24" x="253" y="381" xmlns="http://www.w3.org/2000/svg"><g fill="none" fill-rule="evenodd"><path d="M9.5 11.75H7.003a.507.507 0 01-.503-.5c0-.277.233-.5.503-.5h2.032L7.658 8.781a.5.5 0 01.128-.69.492.492 0 01.69.116l1.519 2.168 1.518-2.168a.5.5 0 01.69-.115.492.492 0 01.13.689l-1.379 1.967h2.043c.278 0 .503.232.503.5 0 .276-.233.5-.503.5H10.5v1h1.502c.275 0 .498.232.498.5 0 .276-.215.5-.498.5H10.5v1.502a.504.504 0 01-.5.498.494.494 0 01-.5-.498v-1.5H7.998a.504.504 0 01-.498-.5c0-.276.215-.5.498-.5H9.5v-1z" fill="#FFF"/><path d="M7.536 5.525S1.1 9.027 2.106 13.567C3.114 18.107 9.203 18 10.197 18c.993 0 6.505-.154 7.667-4.456 1.162-4.303-5.466-8.019-5.466-8.019s1.67-.72 1.67-1.732c0-1.01-1.751-1.793-4.066-1.793-2.314 0-3.95.845-3.68 1.861.268 1.016 1.215 1.664 1.215 1.664z" stroke="#FFF"/></g></svg><svg width="24" height="24" viewBox="-2 -2 24 24" x="277" y="381" xmlns="http://www.w3.org/2000/svg"><g fill="none" fill-rule="evenodd"><path d="M2.5 8.5h2v6h-2v-6z" stroke="#FFF"/><path fill="#FFF" d="M2 17h15v1H2z"/><path d="M8.5 2.5h2v12h-2v-12zm6 3h2v9h-2z" stroke="#FFF"/></g></svg><svg width="24" height="24" viewBox="-2 -2 24 24" x="301" y="381" xmlns="http://www.w3.org/2000/svg"><g fill="#FFF" fill-rule="evenodd"><path d="M18.995 14.517c0-.014 0-.028-.002-.04v-.006c-.002-.012-.002-.024-.006-.034l-.004-.02a.465.465 0 00-.13-.237l-.013-.01-1.434-1.438a.484.484 0 00-.68 0 .484.484 0 000 .68l.624.625h-3.496a.483.483 0 00-.482.482c0 .265.216.482.482.482h3.496l-.625.625a.484.484 0 000 .68.484.484 0 00.681 0l1.436-1.435.012-.01a.483.483 0 00.125-.217l.006-.02.004-.02.006-.034v-.006c.002-.015.002-.029.002-.04l-.002-.007c0 .002 0 .002 0 0 0 .002 0 .002 0 0 0 .002 0 .002 0 0zm-5.427-4.694c.265 0 .432-.235.432-.5s-.167-.5-.432-.5H10.5v-.5l1.926-2.002a.484.484 0 000-.68.484.484 0 00-.681 0L9.997 7.322 8.25 5.64a.484.484 0 00-.68 0 .484.484 0 000 .681L9.5 8.323v.5H6.427c-.265 0-.427.235-.427.5s.162.5.427.5H9.5v1H7.427c-.265 0-.427.235-.427.5s.162.5.427.5H9.5v1.9a.5.5 0 00.497.485c.266 0 .503-.22.503-.485v-1.9h2.068c.265 0 .432-.235.432-.5s-.167-.5-.432-.5H10.5v-1h3.068z"/><path d="M14.394 16.833c-.1 0-.195.03-.273.084a8.034 8.034 0 113.828-5.742.48.48 0 10.958.1 8.998 8.998 0 00-8.911-10.25A8.995 8.995 0 001 10.021a8.998 8.998 0 0013.617 7.722v-.002a.482.482 0 00.26-.428.483.483 0 00-.483-.48"/></g></svg><svg width="20" height="22" viewBox="-2 -2 20 22" x="334" y="270" xmlns="http://www.w3.org/2000/svg"><path d="M3 14.067L7.184 2.656a1 1 0 011.88.007l4.091 11.404M5.36 9.218h5.541M2 16.5h12.541" fill="none" stroke="#FFF" stroke-linecap="round" stroke-width="2"/></svg><svg width="19" height="21" viewBox="-2 -2 19 21" x="392" y="381" xmlns="http://www.w3.org/2000/svg"><path d="M2 13.067L6.184 1.656a1 1 0 011.88.007l4.091 11.404M4.36 8.218h5.541M1 15.5h12.541" fill="none" stroke="#757575" stroke-linecap="round" stroke-width="2"/></svg><svg width="30" height="24" viewBox="-2 -2 30 24" x="374" y="150" xmlns="http://www.w3.org/2000/svg"><g fill="#FFF" fill-rule="evenodd"><path d="M20 9.092c-.453.142-.836.44-1.086.832a1.998 1.998 0 00-1.755.732L15.9 12.21a1.999 1.999 0 00-.335 1.913 1.999 1.999 0 00-.526 1.855l.45 1.949c.1.434.335.802.65 1.07A4.073 4.073 0 0116 19H4a4 4 0 01-4-4V4a4 4 0 014-4h12a4 4 0 014 4v5.092zm-.001 6.002l-.005.12-.02-.09.025-.03zM7 5a1 1 0 100 2h7a1 1 0 000-2H7zm2 4a1 1 0 100 2h7a1 1 0 000-2H9zm-2 4a1 1 0 000 2h7a1 1 0 000-2H7zM4 5a1 1 0 100 2 1 1 0 000-2zm2 4a1 1 0 100 2 1 1 0 000-2zm-2 4a1 1 0 100 2 1 1 0 000-2z"/><path d="M20.025 12.384V12a1 1 0 011-1h1a1 1 0 011 1v.384l.29-.235a1 1 0 011.406.148l.63.777a1 1 0 01-.148 1.407l-.31.25.381.087a1 1 0 01.75 1.2l-.225.974a1 1 0 01-1.2.75l-.37-.086.165.339a1 1 0 01-.46 1.337l-.9.438a1 1 0 01-1.337-.46l-.172-.354-.173.354a1 1 0 01-1.337.46l-.899-.438a1 1 0 01-.46-1.337l.165-.339-.37.086a1 1 0 01-1.2-.75l-.225-.974a1 1 0 01.75-1.2l.38-.087-.31-.25a1 1 0 01-.147-1.407l.63-.777a1 1 0 011.406-.148l.29.235zm.767 1.589a1.002 1.002 0 01-.132.212l-.63.777c-.048.06-.102.113-.16.159.034.069.06.143.079.222l.225.974c.018.08.027.16.026.239a.96.96 0 01.231.08l.899.438c.071.035.136.076.195.124a.943.943 0 01.194-.124l.9-.438a.939.939 0 01.23-.08 1.002 1.002 0 01.026-.239l.225-.974c.019-.079.046-.153.08-.222a1.003 1.003 0 01-.16-.159l-.63-.777a1.002 1.002 0 01-.132-.212 1.003 1.003 0 01-.233.027h-1c-.08 0-.159-.01-.233-.027z"/></g></svg><svg width="29" height="25" viewBox="-2 -2 29 25" x="30" y="381" xmlns="http://www.w3.org/2000/svg"><g fill="none" fill-rule="evenodd"><path stroke="#757575" stroke-linecap="round" d="M16.343 20H5a4 4 0 01-4-4V5a4 4 0 014-4h12a4 4 0 014 4v5.727"/><path fill="#757575" d="M19.025 13.384V13a1 1 0 011-1h1a1 1 0 011 1v.384l.29-.235a1 1 0 011.406.148l.63.777a1 1 0 01-.148 1.407l-.31.25.381.087a1 1 0 01.75 1.2l-.225.974a1 1 0 01-1.2.75l-.37-.086.165.339a1 1 0 01-.46 1.337l-.9.438a1 1 0 01-1.337-.46l-.172-.354-.173.354a1 1 0 01-1.337.46l-.899-.438a1 1 0 01-.46-1.337l.165-.339-.37.086a1 1 0 01-1.2-.75l-.225-.974a1 1 0 01.75-1.2l.38-.087-.31-.25a1 1 0 01-.147-1.407l.63-.777a1 1 0 011.406-.148l.29.235zm.767 1.589a1.002 1.002 0 01-.132.212l-.63.777c-.048.06-.102.113-.16.159.034.069.06.143.079.222l.225.974c.018.08.027.16.026.239a.96.96 0 01.231.08l.899.438c.071.035.136.076.195.124a.943.943 0 01.194-.124l.9-.438a.939.939 0 01.23-.08 1.002 1.002 0 01.026-.239l.225-.974c.019-.079.046-.153.08-.222a1.003 1.003 0 01-.16-.159l-.63-.777a1.002 1.002 0 01-.132-.212 1.003 1.003 0 01-.233.027h-1c-.08 0-.159-.01-.233-.027zM8 6h7a1 1 0 010 2H8a1 1 0 110-2zm2 4h7a1 1 0 010 2h-7a1 1 0 010-2zm-2 4h7a1 1 0 010 2H8a1 1 0 010-2zM5 6a1 1 0 110 2 1 1 0 010-2zm2 4a1 1 0 110 2 1 1 0 010-2zm-2 4a1 1 0 110 2 1 1 0 010-2z"/></g></svg><svg width="22" height="22" viewBox="-2 -2 22 22" x="354" y="270" xmlns="http://www.w3.org/2000/svg"><g fill="#ED7760" fill-rule="evenodd" stroke="#ED7760" stroke-width=".5"><path d="M7.832 9l-4.931 4.932a.612.612 0 00-.003.87.621.621 0 00.87-.003l5.331-5.332c.13-.13.19-.3.182-.467a.616.616 0 00-.182-.467L3.768 3.2a.621.621 0 00-.87-.002.612.612 0 00.003.87L7.832 9z"/><path d="M13.832 9l-4.931 4.932a.612.612 0 00-.003.87.621.621 0 00.87-.003l5.331-5.332c.13-.13.19-.3.182-.467a.616.616 0 00-.182-.467L9.768 3.2a.621.621 0 00-.87-.002.612.612 0 00.003.87L13.832 9z"/></g></svg><svg width="26" height="26" viewBox="-2 -2 26 26" x="273" y="411" xmlns="http://www.w3.org/2000/svg"><g fill="none" fill-rule="evenodd" stroke="#FFF" transform="translate(1 1)"><path d="M6 6l8 8m0-8l-8 8" stroke-linecap="round"/><circle cx="10" cy="10" r="10"/></g></svg><svg width="28" height="28" viewBox="-2 -2 28 28" x="140" y="411" xmlns="http://www.w3.org/2000/svg"><defs><filter x="-.8%" y="-.8%" width="101.7%" height="101.7%" filterUnits="objectBoundingBox" id="aj"><feOffset dx=".3" dy=".3" in="SourceAlpha" result="shadowOffsetInner1"/><feComposite in="shadowOffsetInner1" in2="SourceAlpha" operator="arithmetic" k2="-1" k3="1" result="shadowInnerInner1"/><feColorMatrix values="0 0 0 0 0.839215686 0 0 0 0 0.57254902 0 0 0 0 0.0666666667 0 0 0 0.3 0" in="shadowInnerInner1"/></filter><filter x="-1.3%" y="-1.5%" width="105%" height="106%" filterUnits="objectBoundingBox" id="al"><feOffset dx=".3" dy=".3" in="SourceAlpha" result="shadowOffsetOuter1"/><feColorMatrix values="0 0 0 0 0.882352941 0 0 0 0 0.611764706 0 0 0 0 0.176470588 0 0 0 1 0" in="shadowOffsetOuter1"/></filter><filter x="-1.3%" y="-1.5%" width="105%" height="106%" filterUnits="objectBoundingBox" id="an"><feOffset dx=".3" dy=".3" in="SourceAlpha" result="shadowOffsetInner1"/><feComposite in="shadowOffsetInner1" in2="SourceAlpha" operator="arithmetic" k2="-1" k3="1" result="shadowInnerInner1"/><feColorMatrix values="0 0 0 0 1 0 0 0 0 1 0 0 0 0 1 0 0 0 0.7 0" in="shadowInnerInner1"/></filter><circle id="ah" cx="12" cy="12" r="12"/><circle id="ai" cx="12" cy="12" r="9"/><path id="am" d="M6 16.5l2.286.5L9 10.75l3.286 4.75L15 10.75l.714 6.25L18 16l-1.714-9L14 7.5 12.286 12 9.429 7l-2.286.5z"/></defs><g fill="none" fill-rule="evenodd"><use fill="#FE3" xlink:href="#ah"/><circle stroke="#FFC400" cx="12" cy="12" r="11.5"/><mask id="ak" fill="#fff"><use xlink:href="#ai"/></mask><use fill="#FFC400" xlink:href="#ai"/><use fill="#000" filter="url(#aj)" xlink:href="#ai"/><g mask="url(#ak)"><use fill="#000" filter="url(#al)" xlink:href="#am"/><use fill="#FE3" xlink:href="#am"/><use fill="#000" filter="url(#an)" xlink:href="#am"/></g></g></svg><svg width="28" height="28" viewBox="-2 -2 28 28" x="168" y="411" xmlns="http://www.w3.org/2000/svg"><defs><filter x="-.8%" y="-.8%" width="101.7%" height="101.7%" filterUnits="objectBoundingBox" id="aq"><feOffset dx=".3" dy=".3" in="SourceAlpha" result="shadowOffsetInner1"/><feComposite in="shadowOffsetInner1" in2="SourceAlpha" operator="arithmetic" k2="-1" k3="1" result="shadowInnerInner1"/><feColorMatrix values="0 0 0 0 0.439215686 0 0 0 0 0.6 0 0 0 0 0.666666667 0 0 0 1 0" in="shadowInnerInner1"/></filter><filter x="-1.3%" y="-1.5%" width="105%" height="106%" filterUnits="objectBoundingBox" id="as"><feOffset dx=".3" dy=".3" in="SourceAlpha" result="shadowOffsetOuter1"/><feColorMatrix values="0 0 0 0 0.438389849 0 0 0 0 0.598706632 0 0 0 0 0.666719813 0 0 0 1 0" in="shadowOffsetOuter1"/></filter><filter x="-1.3%" y="-1.5%" width="105%" height="106%" filterUnits="objectBoundingBox" id="au"><feOffset dx=".3" dy=".3" in="SourceAlpha" result="shadowOffsetInner1"/><feComposite in="shadowOffsetInner1" in2="SourceAlpha" operator="arithmetic" k2="-1" k3="1" result="shadowInnerInner1"/><feColorMatrix values="0 0 0 0 1 0 0 0 0 1 0 0 0 0 1 0 0 0 0.79 0" in="shadowInnerInner1"/></filter><circle id="ao" cx="12" cy="12" r="12"/><circle id="ap" cx="12" cy="12" r="9"/><path id="at" d="M6 16.5l2.286.5L9 10.75l3.286 4.75L15 10.75l.714 6.25L18 16l-1.714-9L14 7.5 12.286 12 9.429 7l-2.286.5z"/></defs><g fill="none" fill-rule="evenodd"><use fill="#DBF3FE" xlink:href="#ao"/><circle stroke="#9EBFCD" cx="12" cy="12" r="11.5"/><mask id="ar" fill="#fff"><use xlink:href="#ap"/></mask><use fill="#9EBFCD" xlink:href="#ap"/><use fill="#000" filter="url(#aq)" xlink:href="#ap"/><g mask="url(#ar)"><use fill="#000" filter="url(#as)" xlink:href="#at"/><use fill="#DBF3FE" xlink:href="#at"/><use fill="#000" filter="url(#au)" xlink:href="#at"/></g></g></svg><svg width="28" height="28" viewBox="-2 -2 28 28" x="196" y="411" xmlns="http://www.w3.org/2000/svg"><defs><filter x="-1%" y="-1%" width="102.1%" height="102.1%" filterUnits="objectBoundingBox" id="aw"><feOffset dx="-.5" dy="-.5" in="SourceAlpha" result="shadowOffsetInner1"/><feComposite in="shadowOffsetInner1" in2="SourceAlpha" operator="arithmetic" k2="-1" k3="1" result="shadowInnerInner1"/><feColorMatrix values="0 0 0 0 0.91372549 0 0 0 0 0.62745098 0 0 0 0 0.188235294 0 0 0 0.4 0" in="shadowInnerInner1"/></filter><filter x="-.8%" y="-.8%" width="101.7%" height="101.7%" filterUnits="objectBoundingBox" id="ay"><feOffset dx=".3" dy=".3" in="SourceAlpha" result="shadowOffsetInner1"/><feComposite in="shadowOffsetInner1" in2="SourceAlpha" operator="arithmetic" k2="-1" k3="1" result="shadowInnerInner1"/><feColorMatrix values="0 0 0 0 0.682352941 0 0 0 0 0.454901961 0 0 0 0 0.223529412 0 0 0 1 0" in="shadowInnerInner1"/></filter><filter x="-1.3%" y="-1.5%" width="105%" height="106%" filterUnits="objectBoundingBox" id="aA"><feOffset dx=".3" dy=".3" in="SourceAlpha" result="shadowOffsetOuter1"/><feColorMatrix values="0 0 0 0 0.683487457 0 0 0 0 0.454417758 0 0 0 0 0.225348059 0 0 0 1 0" in="shadowOffsetOuter1"/></filter><filter x="-1.3%" y="-1.5%" width="105%" height="106%" filterUnits="objectBoundingBox" id="aC"><feOffset dx=".3" dy=".3" in="SourceAlpha" result="shadowOffsetInner1"/><feComposite in="shadowOffsetInner1" in2="SourceAlpha" operator="arithmetic" k2="-1" k3="1" result="shadowInnerInner1"/><feColorMatrix values="0 0 0 0 1 0 0 0 0 1 0 0 0 0 1 0 0 0 0.8 0" in="shadowInnerInner1"/></filter><circle id="av" cx="12" cy="12" r="12"/><circle id="ax" cx="12" cy="12" r="9"/><path id="aB" d="M6 16.5l2.286.5L9 10.75l3.286 4.75L15 10.75l.714 6.25L18 16l-1.714-9L14 7.5 12.286 12 9.429 7l-2.286.5z"/></defs><g fill="none" fill-rule="evenodd"><use fill="#FFE2C4" xlink:href="#av"/><use fill="#000" filter="url(#aw)" xlink:href="#av"/><circle stroke="#DD9C5B" cx="12" cy="12" r="11.5"/><mask id="az" fill="#fff"><use xlink:href="#ax"/></mask><use fill="#DD9C5B" xlink:href="#ax"/><use fill="#000" filter="url(#ay)" xlink:href="#ax"/><g mask="url(#az)"><use fill="#000" filter="url(#aA)" xlink:href="#aB"/><use fill="#FFE2C4" xlink:href="#aB"/><use fill="#000" filter="url(#aC)" xlink:href="#aB"/></g></g></svg><svg width="26" height="26" viewBox="-2 -2 26 26" x="299" y="411" xmlns="http://www.w3.org/2000/svg"><g fill="none" fill-rule="evenodd" stroke="#ED7760" stroke-width="1.5"><path stroke-linecap="round" d="M19.5 11.114h1m-1.854-4.647l.708-.707m-.708 10l.708.707M15 8.614c.667.833 1 1.666 1 2.5 0 .833-.333 1.666-1 2.5"/><path d="M3 7.928c-.69 0-1.25.56-1.25 1.25v3.872c0 .69.56 1.25 1.25 1.25h2.268c.65 0 1.279.23 1.775.65l3.15 2.664a1.25 1.25 0 002.057-.955V5.57a1.25 1.25 0 00-2.057-.955l-3.15 2.664a2.75 2.75 0 01-1.775.65H3z"/></g></svg><svg width="19" height="19" viewBox="-2 -2 19 19" x="442" y="17" xmlns="http://www.w3.org/2000/svg"><defs><filter id="aF" width="102.7%" height="102.7%" x="-1.3%" y="-1.3%" filterUnits="objectBoundingBox"><feOffset dx=".3" dy=".3" in="SourceAlpha" result="shadowOffsetInner1"/><feComposite in="shadowOffsetInner1" in2="SourceAlpha" k2="-1" k3="1" operator="arithmetic" result="shadowInnerInner1"/><feColorMatrix in="shadowInnerInner1" values="0 0 0 0 0.839215686 0 0 0 0 0.57254902 0 0 0 0 0.0666666667 0 0 0 0.3 0"/></filter><filter id="aH" width="108%" height="109.6%" x="-2%" y="-2.4%" filterUnits="objectBoundingBox"><feOffset dx=".3" dy=".3" in="SourceAlpha" result="shadowOffsetOuter1"/><feColorMatrix in="shadowOffsetOuter1" values="0 0 0 0 0.882352941 0 0 0 0 0.611764706 0 0 0 0 0.176470588 0 0 0 1 0"/></filter><filter id="aJ" width="108%" height="109.6%" x="-2%" y="-2.4%" filterUnits="objectBoundingBox"><feOffset dx=".3" dy=".3" in="SourceAlpha" result="shadowOffsetInner1"/><feComposite in="shadowOffsetInner1" in2="SourceAlpha" k2="-1" k3="1" operator="arithmetic" result="shadowInnerInner1"/><feColorMatrix in="shadowInnerInner1" values="0 0 0 0 1 0 0 0 0 1 0 0 0 0 1 0 0 0 0.7 0"/></filter><circle id="aD" cx="7.5" cy="7.5" r="7.5"/><circle id="aE" cx="7.5" cy="7.5" r="5.625"/><path id="aI" d="M3.75 10.313l1.429.312.446-3.906 2.054 2.968L9.375 6.72l.446 3.906L11.25 10l-1.071-5.625-1.429.313L7.679 7.5 5.893 4.375l-1.429.313z"/></defs><g fill="none" fill-rule="evenodd"><use fill="#FE3" xlink:href="#aD"/><circle cx="7.5" cy="7.5" r="7" stroke="#FFC400"/><mask id="aG" fill="#fff"><use xlink:href="#aE"/></mask><use fill="#FFC400" xlink:href="#aE"/><use fill="#000" filter="url(#aF)" xlink:href="#aE"/><g mask="url(#aG)"><use fill="#000" filter="url(#aH)" xlink:href="#aI"/><use fill="#FE3" xlink:href="#aI"/><use fill="#000" filter="url(#aJ)" xlink:href="#aI"/></g></g></svg><svg width="19" height="19" viewBox="-2 -2 19 19" x="442" y="36" xmlns="http://www.w3.org/2000/svg"><defs><filter id="aM" width="102.7%" height="102.7%" x="-1.3%" y="-1.3%" filterUnits="objectBoundingBox"><feOffset dx=".3" dy=".3" in="SourceAlpha" result="shadowOffsetInner1"/><feComposite in="shadowOffsetInner1" in2="SourceAlpha" k2="-1" k3="1" operator="arithmetic" result="shadowInnerInner1"/><feColorMatrix in="shadowInnerInner1" values="0 0 0 0 0.439215686 0 0 0 0 0.6 0 0 0 0 0.666666667 0 0 0 1 0"/></filter><filter id="aO" width="108%" height="109.6%" x="-2%" y="-2.4%" filterUnits="objectBoundingBox"><feOffset dx=".3" dy=".3" in="SourceAlpha" result="shadowOffsetOuter1"/><feColorMatrix in="shadowOffsetOuter1" values="0 0 0 0 0.438389849 0 0 0 0 0.598706632 0 0 0 0 0.666719813 0 0 0 1 0"/></filter><filter id="aQ" width="108%" height="109.6%" x="-2%" y="-2.4%" filterUnits="objectBoundingBox"><feOffset dx=".3" dy=".3" in="SourceAlpha" result="shadowOffsetInner1"/><feComposite in="shadowOffsetInner1" in2="SourceAlpha" k2="-1" k3="1" operator="arithmetic" result="shadowInnerInner1"/><feColorMatrix in="shadowInnerInner1" values="0 0 0 0 1 0 0 0 0 1 0 0 0 0 1 0 0 0 0.79 0"/></filter><circle id="aK" cx="7.5" cy="7.5" r="7.5"/><circle id="aL" cx="7.5" cy="7.5" r="5.625"/><path id="aP" d="M3.75 10.313l1.429.312.446-3.906 2.054 2.968L9.375 6.72l.446 3.906L11.25 10l-1.071-5.625-1.429.313L7.679 7.5 5.893 4.375l-1.429.313z"/></defs><g fill="none" fill-rule="evenodd"><use fill="#DBF3FE" xlink:href="#aK"/><circle cx="7.5" cy="7.5" r="7" stroke="#9EBFCD"/><mask id="aN" fill="#fff"><use xlink:href="#aL"/></mask><use fill="#9EBFCD" xlink:href="#aL"/><use fill="#000" filter="url(#aM)" xlink:href="#aL"/><g mask="url(#aN)"><use fill="#000" filter="url(#aO)" xlink:href="#aP"/><use fill="#DBF3FE" xlink:href="#aP"/><use fill="#000" filter="url(#aQ)" xlink:href="#aP"/></g></g></svg><svg width="19" height="19" viewBox="-2 -2 19 19" x="442" y="55" xmlns="http://www.w3.org/2000/svg"><defs><filter id="aS" width="103.3%" height="103.3%" x="-1.7%" y="-1.7%" filterUnits="objectBoundingBox"><feOffset dx="-.5" dy="-.5" in="SourceAlpha" result="shadowOffsetInner1"/><feComposite in="shadowOffsetInner1" in2="SourceAlpha" k2="-1" k3="1" operator="arithmetic" result="shadowInnerInner1"/><feColorMatrix in="shadowInnerInner1" values="0 0 0 0 0.91372549 0 0 0 0 0.62745098 0 0 0 0 0.188235294 0 0 0 0.4 0"/></filter><filter id="aU" width="102.7%" height="102.7%" x="-1.3%" y="-1.3%" filterUnits="objectBoundingBox"><feOffset dx=".3" dy=".3" in="SourceAlpha" result="shadowOffsetInner1"/><feComposite in="shadowOffsetInner1" in2="SourceAlpha" k2="-1" k3="1" operator="arithmetic" result="shadowInnerInner1"/><feColorMatrix in="shadowInnerInner1" values="0 0 0 0 0.682352941 0 0 0 0 0.454901961 0 0 0 0 0.223529412 0 0 0 1 0"/></filter><filter id="aW" width="108%" height="109.6%" x="-2%" y="-2.4%" filterUnits="objectBoundingBox"><feOffset dx=".3" dy=".3" in="SourceAlpha" result="shadowOffsetOuter1"/><feColorMatrix in="shadowOffsetOuter1" values="0 0 0 0 0.683487457 0 0 0 0 0.454417758 0 0 0 0 0.225348059 0 0 0 1 0"/></filter><filter id="aY" width="108%" height="109.6%" x="-2%" y="-2.4%" filterUnits="objectBoundingBox"><feOffset dx=".3" dy=".3" in="SourceAlpha" result="shadowOffsetInner1"/><feComposite in="shadowOffsetInner1" in2="SourceAlpha" k2="-1" k3="1" operator="arithmetic" result="shadowInnerInner1"/><feColorMatrix in="shadowInnerInner1" values="0 0 0 0 1 0 0 0 0 1 0 0 0 0 1 0 0 0 0.8 0"/></filter><circle id="aR" cx="7.5" cy="7.5" r="7.5"/><circle id="aT" cx="7.5" cy="7.5" r="5.625"/><path id="aX" d="M3.75 10.313l1.429.312.446-3.906 2.054 2.968L9.375 6.72l.446 3.906L11.25 10l-1.071-5.625-1.429.313L7.679 7.5 5.893 4.375l-1.429.313z"/></defs><g fill="none" fill-rule="evenodd"><use fill="#FFE2C4" xlink:href="#aR"/><use fill="#000" filter="url(#aS)" xlink:href="#aR"/><circle cx="7.5" cy="7.5" r="7" stroke="#DD9C5B"/><mask id="aV" fill="#fff"><use xlink:href="#aT"/></mask><use fill="#DD9C5B" xlink:href="#aT"/><use fill="#000" filter="url(#aU)" xlink:href="#aT"/><g mask="url(#aV)"><use fill="#000" filter="url(#aW)" xlink:href="#aX"/><use fill="#FFE2C4" xlink:href="#aX"/><use fill="#000" filter="url(#aY)" xlink:href="#aX"/></g></g></svg><svg width="16" height="15" viewBox="-2 -2 16 15" x="442" y="181" xmlns="http://www.w3.org/2000/svg"><path fill="#EA7677" fill-rule="evenodd" d="M.022 4.006c.202 2.126 5.209 6.042 5.209 6.042a1.233 1.233 0 001.536-.02s5.185-4.212 5.232-6.378C12.073.192 8.287-1.326 6 1.407 3.636-1.418-.33.299.022 4.007z"/></svg><svg width="34" height="34" viewBox="-2 -2 34 34" x="243" y="331" xmlns="http://www.w3.org/2000/svg"><path d="M22.993 13.852c0-.497-.45-1.993-2.118-1.993-1.67 0-1.894 1.412-1.894 2.41 0 .953.088 2.284 2.163 2.241 2.076-.042 1.849-2.158 1.849-2.658zm-4.013 7.684h-2.835c-1.098-.26-1.15-.977-1.15-.977v-2.878l1.15-.017v2.587c.07.276.443.326.443.326h1.168V17.68h1.224v3.855zm-4.588.015h-2.464c-1.063-.194-1.487-.86-1.54-.974-.053-.116-.355-.652-.195-1.563.46-1.365 1.77-1.463 1.77-1.463h1.312v-1.48l1.117.016v5.464zm6.483-3.337s-2.164-1.537-3.428-3.199c-1.712-2.45-4.146-1.453-4.96-.207-.81 1.246-2.073 2.034-2.252 2.243-.182.205-2.615 1.41-2.075 3.613.54 2.2 2.437 2.158 2.437 2.158s1.398.126 3.02-.207a6.911 6.911 0 013.018.083s3.789 1.164 4.826-1.078c1.035-2.243-.586-3.406-.586-3.406zm-3.428-6.106c1.4.167 2.299-1.204 2.477-2.243.183-1.037-.72-2.242-1.71-2.45-.993-.208-2.232 1.251-2.345 2.203-.134 1.163.182 2.325 1.578 2.49zm-4.508-.164c1.047 0 1.893-1.105 1.893-2.473 0-1.365-.846-2.471-1.893-2.471-1.044 0-1.893 1.106-1.893 2.471 0 1.368.849 2.473 1.893 2.473zm-1.505 7.103c-.055.146-.18.52-.072.846.212.73.902.763.902.763h.993v-2.227h-1.063c-.478.13-.708.472-.76.618zm-2.012-3.616c1.895-.374 1.637-2.453 1.58-2.907-.093-.701-.99-1.925-2.21-1.829-1.533.127-1.757 2.16-1.757 2.16-.207.941.496 2.95 2.387 2.576z" fill="#FFF" fill-rule="evenodd"/></svg><svg width="36" height="36" viewBox="-2 -2 36 36" x="275" y="292" xmlns="http://www.w3.org/2000/svg"><path d="M25.99 14.565c0-.621-.561-2.492-2.646-2.492-2.089 0-2.368 1.766-2.368 3.014 0 1.19.11 2.854 2.704 2.8 2.595-.052 2.31-2.697 2.31-3.322zm-5.015 9.605H17.43c-1.373-.325-1.437-1.22-1.437-1.22v-3.598l1.437-.022v3.234c.088.344.554.407.554.407h1.46v-3.62h1.53v4.819zm-5.735.02h-3.08c-1.33-.244-1.859-1.077-1.926-1.22-.065-.143-.442-.813-.243-1.952.575-1.707 2.214-1.83 2.214-1.83h1.639v-1.85l1.396.02v6.831zm8.104-4.172s-2.706-1.922-4.285-3.999c-2.14-3.062-5.182-1.816-6.2-.259-1.013 1.558-2.591 2.542-2.815 2.803-.228.257-3.269 1.764-2.594 4.517.676 2.75 3.046 2.697 3.046 2.697s1.747.158 3.774-.258c2.028-.413 3.773.103 3.773.103s4.737 1.456 6.033-1.347c1.295-2.803-.732-4.257-.732-4.257zm-4.285-7.633c1.749.208 2.873-1.505 3.096-2.803.229-1.297-.9-2.803-2.138-3.062-1.24-.261-2.79 1.563-2.93 2.752-.169 1.454.227 2.907 1.972 3.113zm-5.635-.204c1.309 0 2.366-1.383 2.366-3.092C15.79 7.382 14.733 6 13.424 6c-1.306 0-2.367 1.382-2.367 3.09s1.061 3.09 2.367 3.09zm-1.881 8.878c-.07.183-.224.65-.09 1.057a1.292 1.292 0 001.127.954h1.241v-2.784h-1.328c-.598.164-.885.59-.95.773zm-2.516-4.52c2.37-.467 2.047-3.066 1.976-3.634-.117-.876-1.238-2.406-2.762-2.286-1.917.158-2.197 2.7-2.197 2.7-.26 1.176.62 3.687 2.983 3.22z" fill="#FFF" fill-rule="evenodd"/></svg><svg width="34" height="34" viewBox="-2 -2 34 34" x="277" y="331" xmlns="http://www.w3.org/2000/svg"><path d="M15 20.9s-5.235 3.343-5.559 3.07c-.323-.274 1.062-6.502 1.062-6.502s-4.69-4.1-4.497-4.604c.192-.504 6.215-.949 6.215-.949S14.46 6 15.001 6c.542 0 2.78 5.915 2.78 5.915s6.048.448 6.215.949c.166.5-4.498 4.604-4.498 4.604s.058.398.125.695c.005.02-2.177.072-3.964 0-.94-.038-2.07-.22-2.07-.22l5.176-3.877s-1.872-.354-3.764-.425c-2.073-.077-4.195.132-4.498.213-.19.05 1.34.047 3.086.212 1.222.116 2.83.425 2.83.425l-5.175 4.046s2.216.142 4.205.128c2.238-.015 4.258-.308 4.27-.252.39 1.771 1.108 5.27.84 5.557-.363.388-5.558-3.07-5.558-3.07z" fill="#FFF" fill-rule="evenodd"/></svg><svg width="36" height="36" viewBox="-2 -2 36 36" x="311" y="292" xmlns="http://www.w3.org/2000/svg"><path d="M16 23.211s-6.398 4.085-6.794 3.752c-.395-.334 1.298-7.946 1.298-7.946s-5.731-5.012-5.497-5.628c.235-.616 7.597-1.16 7.597-1.16S15.339 5 16 5c.662 0 3.397 7.23 3.397 7.23s7.393.547 7.597 1.159c.203.612-5.497 5.628-5.497 5.628s.07.486.153.849c.005.024-2.66.088-4.846 0-1.148-.046-2.53-.27-2.53-.27l6.327-4.737s-2.288-.433-4.601-.52c-2.533-.094-5.127.161-5.497.26-.233.062 1.638.057 3.772.26 1.493.141 3.46.519 3.46.519l-6.327 4.946s2.71.172 5.14.156c2.735-.02 5.203-.377 5.219-.308.476 2.164 1.354 6.442 1.027 6.79-.445.476-6.794-3.75-6.794-3.75z" fill="#FFF" fill-rule="evenodd"/></svg><svg width="34" height="34" viewBox="-2 -2 34 34" x="311" y="331" xmlns="http://www.w3.org/2000/svg"><path d="M14.043 23c4.442 0 8.008-2.396 8.008-5.35 0-2.497-3.032-2.497-3.032-2.658 0-.162 1.51-1.612 0-2.514-1.51-.903-4.27.47-4.188.322 1.188-2.107-.51-2.772-1.375-2.772-2.063 0-7.456 4.666-7.456 7.621S9.601 23 14.043 23zm.225-1.64c2.837-.398 4.921-2.263 4.654-4.165-.267-1.903-2.785-3.121-5.623-2.722-2.837.398-4.921 2.264-4.654 4.166.267 1.902 2.785 3.12 5.623 2.722zm-.524-.517c1.688-.328 2.827-1.77 2.546-3.22-.282-1.451-1.88-2.36-3.567-2.033-1.688.328-2.828 1.77-2.546 3.22.282 1.451 1.879 2.36 3.567 2.033zm.04-2.659c.286 0 .518-.24.518-.535a.527.527 0 00-.518-.535.527.527 0 00-.52.535c0 .296.233.535.52.535zm-1.187 1.22c.52-.241.789-.763.602-1.165-.188-.402-.76-.531-1.28-.289-.52.242-.789.764-.602 1.166.188.402.76.531 1.28.289zm8.392-8.216c-.938-.87-2.021-.565-2.021-.565a.613.613 0 00-.514.602v-.15c0 .294.228.517.524.515 0 0 .885-.144 1.385.469.5.612.144 1.453.144 1.453-.08.283.088.513.39.513h.026c.295 0 .58-.234.62-.527 0 0 .383-1.44-.554-2.31zm1.75-1.74c-1.72-1.676-4.001-1.435-4.001-1.435a.809.809 0 00-.803.803V8.65a.78.78 0 00.791.782s2.2-.264 3.231 1.262c1.032 1.527.608 3.222.608 3.222a.678.678 0 00.693.786h-.225a.906.906 0 00.887-.802s.538-2.775-1.181-4.451z" fill="#FFF" fill-rule="evenodd"/></svg><svg width="36" height="36" viewBox="-2 -2 36 36" x="347" y="292" xmlns="http://www.w3.org/2000/svg"><path d="M15.277 26c5.676 0 10.233-3.034 10.233-6.778 0-3.162-3.874-3.162-3.874-3.366 0-.204 1.93-2.041 0-3.184-1.93-1.144-5.458.594-5.352.408 1.518-2.669-.651-3.511-1.757-3.511-2.636 0-9.527 5.91-9.527 9.653C5 22.966 9.601 26 15.277 26zm.282-2.076c3.626-.51 6.291-2.876 5.952-5.286-.338-2.409-3.552-3.949-7.179-3.44-3.626.51-6.29 2.877-5.952 5.286.338 2.41 3.552 3.95 7.179 3.44zm-.67-.657c2.157-.419 3.616-2.248 3.259-4.085-.357-1.837-2.395-2.987-4.552-2.568-2.157.42-3.616 2.249-3.259 4.086.358 1.837 2.395 2.987 4.552 2.567zm.057-3.367a.67.67 0 00.663-.678.67.67 0 00-.663-.677.67.67 0 00-.663.677.67.67 0 00.663.678zm-1.52 1.546c.664-.31 1.01-.973.772-1.482-.237-.509-.967-.67-1.631-.36-.664.309-1.01.972-.772 1.481.237.509.967.67 1.631.361zM24.152 11.04c-1.198-1.103-2.57-.717-2.57-.717a.798.798 0 00-.67.776v-.216c0 .38.31.667.671.665 0 0 1.131-.182 1.77.594.64.776.183 1.841.183 1.841-.1.359.114.65.5.65h.033c.377 0 .74-.297.791-.668 0 0 .49-1.823-.708-2.925zm2.237-2.205c-2.197-2.123-5.124-1.818-5.124-1.818a1.023 1.023 0 00-1.015 1.018v-.212c0 .56.45.99 1.011.99 0 0 2.811-.334 4.13 1.6 1.317 1.933.777 4.06.777 4.06a.87.87 0 00.883 1.017h-.287c.565 0 1.084-.45 1.134-1.017 0 0 .687-3.515-1.51-5.638z" fill="#FFF" fill-rule="evenodd"/></svg><svg width="34" height="34" viewBox="-2 -2 34 34" x="345" y="331" xmlns="http://www.w3.org/2000/svg"><path d="M18.91 12.659c2.833.113 5.09 2.109 5.09 4.555 0 1.519-.87 2.865-2.209 3.693-.252.156.546 1.473.264 1.59-.175.072-1.42-1.042-1.605-.986-.56.17-1.164.263-1.794.263-2.302 0-4.265-1.243-5.016-2.985a7.372 7.372 0 01-3.44-.267c-.354-.116-1.651 1.266-1.973 1.099-.192-.1.579-1.735.4-1.85C7.033 16.733 6 15.068 6 13.19c0-3.142 2.896-5.69 6.469-5.69 3.368 0 6.136 2.265 6.44 5.159zm-1.129.056c-.288-2.288-2.557-4.07-5.312-4.07-2.952 0-5.344 2.044-5.344 4.564 0 1.437.777 2.82 1.992 3.656.064.044.383.193.362.406-.046.466-.182.786-.182.786s.374-.439.653-.65c.124-.094.353-.024.417 0a6.118 6.118 0 002.102.366c.298 0 .59-.02.875-.06a3.942 3.942 0 01-.031-.499c0-2.264 1.933-4.143 4.468-4.5zm-7.562-.634a.851.851 0 01-.844-.859c0-.474.378-.859.844-.859.466 0 .844.385.844.86a.851.851 0 01-.844.858zm4.5 0a.851.851 0 01-.844-.859c0-.474.378-.859.844-.859.466 0 .844.385.844.86a.851.851 0 01-.844.858zm5.344 4.009c.31 0 .562-.257.562-.573a.568.568 0 00-.563-.572.568.568 0 00-.562.572c0 .316.252.573.563.573zm-3.375 0c.31 0 .562-.257.562-.573a.568.568 0 00-.563-.572.568.568 0 00-.562.572c0 .316.252.573.563.573z" fill="#FFF" fill-rule="evenodd"/></svg><svg width="36" height="36" viewBox="-2 -2 36 36" x="89" y="331" xmlns="http://www.w3.org/2000/svg"><path d="M14.338 20.547a9.173 9.173 0 01-4.204-.32c-.434-.14-2.019 1.519-2.413 1.318-.234-.12.708-2.081.49-2.22C6.263 18.08 5 16.081 5 13.828 5 10.058 8.54 7 12.906 7c4.117 0 7.5 2.718 7.872 6.19 3.464.136 6.222 2.532 6.222 5.467 0 1.823-1.064 3.437-2.7 4.432-.308.187.668 1.766.322 1.907-.213.087-1.736-1.25-1.96-1.183a7.665 7.665 0 01-2.193.316c-2.814 0-5.213-1.491-6.131-3.582zm-.362-1.292a7.816 7.816 0 01-1.07.073c-.912 0-1.78-.157-2.568-.44-.079-.028-.359-.112-.51 0-.342.254-.799.78-.799.78s.167-.383.224-.943c.025-.255-.365-.435-.443-.487-1.485-1.004-2.435-2.663-2.435-4.387 0-3.025 2.924-5.477 6.531-5.477 3.368 0 6.14 2.138 6.494 4.884-3.099.427-5.462 2.682-5.462 5.399 0 .202.013.401.038.598zm-3.82-6.758a1.031 1.031 0 100-2.062 1.031 1.031 0 000 2.062zm5.5 0a1.031 1.031 0 100-2.062 1.031 1.031 0 000 2.062zm6.531 4.81a.687.687 0 100-1.374.687.687 0 000 1.375zm-4.125 0a.687.687 0 100-1.374.687.687 0 000 1.375z" fill="#FFF" fill-rule="evenodd"/></svg><svg width="16" height="14" viewBox="-2 -2 16 14" x="442" y="196" xmlns="http://www.w3.org/2000/svg"><g fill="none" fill-rule="evenodd"><path fill="#757575" d="M3 3h4v1H3zm0 3h1v1H3z"/><path d="M.5 2v6c0 .833.67 1.5 1.506 1.5H10c.825 0 1.5-.673 1.5-1.5V2A1.5 1.5 0 009.991.5H2.01C1.177.5.5 1.173.5 2z" stroke="#757575"/><path fill="#757575" d="M8 3h1v1H8zM5 6h4v1H5z"/></g></svg><svg width="22" height="22" viewBox="-2 -2 22 22" x="376" y="270" xmlns="http://www.w3.org/2000/svg"><g transform="translate(2 5)" fill="none" fill-rule="evenodd"><path d="M11.819 5.492l1.668 1.447c.232.201.413.117.413-.18v-4.76c0-.289-.185-.38-.413-.182l-1.795 1.557C10.608 2.238 8.755.587 6.79.122 3.704-.608.9 2.082.9 4.5s2.804 5.108 5.89 4.378c2.044-.483 3.966-2.25 5.029-3.386z" fill="#A1A1A1"/><circle fill="#FFF" cx="4" cy="4.5" r="1"/></g></svg><svg width="16" height="14" viewBox="-2 -2 16 14" x="442" y="210" xmlns="http://www.w3.org/2000/svg"><g fill="none" fill-rule="evenodd"><rect stroke="#757575" x=".5" y=".5" width="11" height="9" rx="2"/><path d="M4 2.99c0-.546.396-.774.884-.508l3.732 2.036c.488.266.488.698 0 .964L4.884 7.518C4.396 7.784 4 7.549 4 7.009V2.991z" fill="#757575"/></g></svg><svg width="20" height="20" viewBox="-2 -2 20 20" x="386" y="411" xmlns="http://www.w3.org/2000/svg"><path d="M10.362 8l3.149-3.15a1.67 1.67 0 10-2.362-2.362L8 5.64 4.85 2.49a1.67 1.67 0 00-2.362 2.362L5.64 8l-3.15 3.15a1.67 1.67 0 102.362 2.36L8 10.363l3.15 3.149a1.67 1.67 0 102.36-2.362L10.363 8z" fill="#4B4B4B" fill-rule="evenodd"/></svg><svg width="204" height="150" viewBox="-2 -2 204 150" xmlns="http://www.w3.org/2000/svg"><defs><rect id="aZ" x="0" y="0" width="200" height="146" rx="23.077"/><mask id="ba" maskContentUnits="userSpaceOnUse" maskUnits="objectBoundingBox" x="0" y="0" width="200" height="146" fill="#fff"><use xlink:href="#aZ"/></mask></defs><g fill="none" fill-rule="evenodd"><use stroke="#E63C3C" mask="url(#ba)" stroke-width="4.615" fill="#FAFAFA" stroke-dasharray="6.154" xlink:href="#aZ"/><path d="M148.45 97.333h-8.065a2.692 2.692 0 00-2.693 2.688v.032a2.688 2.688 0 002.693 2.688h8.065v8.065a2.692 2.692 0 002.688 2.693h.032a2.688 2.688 0 002.688-2.693v-8.065h8.065a2.692 2.692 0 002.692-2.688v-.032a2.688 2.688 0 00-2.692-2.688h-8.065v-8.065a2.692 2.692 0 00-2.688-2.693h-.032a2.688 2.688 0 00-2.688 2.693v8.065zM74.278 30.967a9.809 9.809 0 00-7.074 2.991c-1.946 2.017-2.896 4.628-2.916 7.265l.036 12.503.007 33.855c-3.15-2.31-6.992-3.676-11.143-3.647-10.686-.017-19.313 8.832-19.342 19.783.031 10.902 8.697 19.77 19.337 19.777 10.643.008 19.27-8.842 19.283-19.8l-.062-49.95 53.228-9.967-.01 33.854a19.048 19.048 0 00-11.156-3.716c-10.65.02-19.284 8.905-19.268 19.804-.021 10.986 8.633 19.85 19.296 19.83 10.646-.025 19.304-8.87 19.274-19.836l-.009-49.97V31.286a10.412 10.412 0 00-2.97-7.292 10.008 10.008 0 00-7.036-2.972l-49.475 9.945z" fill="#E63C3C"/></g></svg><svg width="204" height="150" viewBox="-2 -2 204 150" x="204" xmlns="http://www.w3.org/2000/svg"><defs><rect id="bb" x="0" y="0" width="200" height="146" rx="23.077"/><mask id="bc" maskContentUnits="userSpaceOnUse" maskUnits="objectBoundingBox" x="0" y="0" width="200" height="146" fill="#fff"><use xlink:href="#bb"/></mask></defs><g fill="none" fill-rule="evenodd"><use stroke="#BDBDBD" mask="url(#bc)" stroke-width="4.615" fill="#FAFAFA" stroke-dasharray="6.154" xlink:href="#bb"/><path d="M148.45 97.333h-8.065a2.692 2.692 0 00-2.693 2.688v.032a2.688 2.688 0 002.693 2.688h8.065v8.065a2.692 2.692 0 002.688 2.693h.032a2.688 2.688 0 002.688-2.693v-8.065h8.065a2.692 2.692 0 002.692-2.688v-.032a2.688 2.688 0 00-2.692-2.688h-8.065v-8.065a2.692 2.692 0 00-2.688-2.693h-.032a2.688 2.688 0 00-2.688 2.693v8.065zM74.278 31.065a9.809 9.809 0 00-7.074 2.991c-1.946 2.017-2.896 4.628-2.916 7.265l.036 12.503.007 33.855c-3.15-2.31-6.992-3.676-11.143-3.647-10.686-.017-19.313 8.832-19.342 19.783.031 10.902 8.697 19.77 19.337 19.777 10.643.007 19.27-8.842 19.283-19.8l-.062-49.95 53.228-9.967-.01 33.854c-3.162-2.315-6.972-3.675-11.156-3.716-10.65.02-19.284 8.905-19.268 19.803-.021 10.987 8.633 19.852 19.296 19.83 10.646-.024 19.304-8.87 19.274-19.835l-.009-49.97V31.384a10.412 10.412 0 00-2.97-7.293 10.008 10.008 0 00-7.036-2.97l-49.475 9.944z" fill="#CFCDCC" opacity=".8"/></g></svg><svg width="62" height="62" viewBox="-2 -2 62 62" x="158" y="208" xmlns="http://www.w3.org/2000/svg"><g fill="none" fill-rule="evenodd"><circle fill="#E0E0E0" cx="29" cy="29" r="29"/><path d="M27 27H16.991A2.001 2.001 0 0015 29c0 1.112.892 2 1.991 2H27v10.009A2 2 0 0029 43c1.112 0 2-.892 2-1.991V31h10.009A2.001 2.001 0 0043 29c0-1.112-.892-2-1.991-2H31V16.991A2.001 2.001 0 0029 15c-1.112 0-2 .892-2 1.991V27z" fill="#FFF"/></g></svg><svg width="19" height="19" viewBox="-2 -2 19 19" x="442" y="74" xmlns="http://www.w3.org/2000/svg"><path d="M7.778 6.374L2.473 1.069a.993.993 0 00-1.404 0v1.404l5.305 5.305-5.305 5.305a.993.993 0 001.404 1.404l5.305-5.305 5.305 5.305a.993.993 0 001.404-1.404L9.182 7.778l5.305-5.305V1.069a.993.993 0 00-1.404 0L7.778 6.374z" fill="#E0E0E0" fill-rule="evenodd"/></svg><svg width="34" height="34" viewBox="-2 -2 34 34" x="408" xmlns="http://www.w3.org/2000/svg"><g transform="translate(1 1)" stroke="#FFF" fill="none" fill-rule="evenodd"><circle stroke-width="2" cx="14" cy="14" r="14"/><path d="M8.5 15.5l4.123 4.123m8.508-8.508l-8.508 8.508" stroke-width="3" stroke-linecap="round"/></g></svg><svg width="22" height="22" viewBox="-2 -2 22 22" x="349" y="381" xmlns="http://www.w3.org/2000/svg"><path d="M17.5 16.5A1.5 1.5 0 0116 18H2a1.5 1.5 0 010-3h14a1.5 1.5 0 011.5 1.5zM14.157 3.964l1.06-1.06a1.5 1.5 0 00-2.12-2.121l-1.06 1.06zM12.743 5.38l-8.486 8.485-2.475.354.354-2.475 8.485-8.486 2.122 2.122z" fill="#E0E0E0" fill-rule="evenodd"/></svg><svg width="34" height="34" viewBox="-2 -2 34 34" x="408" y="34" xmlns="http://www.w3.org/2000/svg"><g fill="none" fill-rule="evenodd"><circle stroke="#FFF" stroke-width="2" cx="15" cy="15" r="14"/><rect fill="#FFF" x="13" y="6" width="4" height="12" rx="2"/><rect fill="#FFF" x="13" y="20" width="4" height="4" rx="2"/></g></svg><svg width="20" height="20" viewBox="-2 -2 20 20" x="406" y="411" xmlns="http://www.w3.org/2000/svg"><g fill="none" fill-rule="evenodd"><circle fill="#BDBDBD" cx="8" cy="8" r="8"/><g transform="translate(7 4)" fill="#FFF"><circle cx="1" cy="1" r="1"/><rect y="3" width="2" height="6" rx="1"/></g></g></svg><svg width="18" height="18" viewBox="-2 -2 18 18" x="442" y="129" xmlns="http://www.w3.org/2000/svg"><g fill="none" fill-rule="evenodd"><circle fill="#E63C3C" cx="7" cy="7" r="7"/><rect fill="#FFF" x="6" y="2" width="2" height="7" rx="1"/><rect fill="#FFF" x="6" y="10" width="2" height="2" rx="1"/></g></svg><svg width="14" height="13" viewBox="-2 -2 14 13" x="442" y="238" xmlns="http://www.w3.org/2000/svg"><g fill="none" fill-rule="evenodd"><path d="M5.5 5.866a1 1 0 10-1 0V7.5a.5.5 0 001 0V5.866zM2 3h6a2 2 0 012 2v2a2 2 0 01-2 2H2a2 2 0 01-2-2V5a2 2 0 012-2z" fill="#FFF"/><path d="M2.5 3.5h5V2C7.5 1.224 6.413.5 5 .5S2.5 1.224 2.5 2v1.5z" stroke="#FFF"/></g></svg><svg width="24" height="23" viewBox="-2 -2 24 23" x="325" y="381" xmlns="http://www.w3.org/2000/svg"><defs><path d="M7 15h2v6a1 1 0 01-2 0v-6z" id="bd"/></defs><g transform="rotate(-45 9.39 6.718)" fill="none" fill-rule="evenodd"><use fill="#D8D8D8" xlink:href="#bd"/><path stroke="#757575" d="M7.5 15.5V21a.5.5 0 101 0v-5.5h-1z"/><circle stroke="#757575" stroke-width="2" cx="7.5" cy="7.5" r="7.5"/></g></svg><svg width="21" height="21" viewBox="-2 -2 21 21" x="411" y="381" xmlns="http://www.w3.org/2000/svg"><path d="M7.005 7.005H1.494C.666 7.005 0 7.675 0 8.5a1.49 1.49 0 001.494 1.495h5.51v5.511c0 .828.67 1.494 1.496 1.494a1.49 1.49 0 001.495-1.494v-5.51h5.511c.828 0 1.494-.67 1.494-1.496a1.49 1.49 0 00-1.494-1.495h-5.51V1.494A1.495 1.495 0 008.5 0a1.49 1.49 0 00-1.495 1.494v5.51z" fill="#E63C3C" fill-rule="evenodd"/></svg><svg width="21" height="21" viewBox="-2 -2 21 21" x="325" y="411" xmlns="http://www.w3.org/2000/svg"><path d="M7.005 7.005H1.494C.666 7.005 0 7.675 0 8.5a1.49 1.49 0 001.494 1.495h5.51v5.511c0 .828.67 1.494 1.496 1.494a1.49 1.49 0 001.495-1.494v-5.51h5.511c.828 0 1.494-.67 1.494-1.496a1.49 1.49 0 00-1.494-1.495h-5.51V1.494A1.495 1.495 0 008.5 0a1.49 1.49 0 00-1.495 1.494v5.51z" fill="#BDBDBB" fill-rule="evenodd"/></svg></svg>